<?xml version="1.0" encoding="utf-8"?>
<!-- Generator: Adobe Illustrator 16.0.0, SVG Export Plug-In . SVG Version: 6.00 Build 0)  -->
<!DOCTYPE svg PUBLIC "-//W3C//DTD SVG 1.1//EN" "http://www.w3.org/Graphics/SVG/1.1/DTD/svg11.dtd">
<svg version="1.1" id="圖層_1" xmlns="http://www.w3.org/2000/svg" xmlns:xlink="http://www.w3.org/1999/xlink" x="0px" y="0px"
	 width="85.04px" height="85.04px" viewBox="0 0 85.04 85.04" enable-background="new 0 0 85.04 85.04" xml:space="preserve">
<circle fill="#432A12" cx="43.361" cy="30.26" r="10.026"/>
<path fill="#432A12" d="M43.361,42.079c-11.113,0-20.122,9.423-20.122,21.048c0,0.055,0.004,0.104,0.004,0.156h40.236
	c0-0.054,0.004-0.104,0.004-0.156C63.483,51.502,54.474,42.079,43.361,42.079z M43.206,62.475l-3.129-3.705
	c0.146-3.911,2.516-11.578,2.516-11.578s-1.474-0.908-1.474-1.928c0-0.961,2.087-2.371,2.087-2.371s2.203,1.57,2.207,2.371
	c0,0.799-1.388,1.928-1.388,1.928c1.199,2.329,2.369,11.578,2.369,11.578L43.206,62.475z"/>
<path fill="#FBF0CD" d="M43.206,62.475l-3.13-3.705c0.146-3.911,2.516-11.578,2.516-11.578s-1.473-0.908-1.473-1.928
	c0-0.961,2.087-2.371,2.087-2.371s2.203,1.57,2.207,2.371c0,0.799-1.388,1.928-1.388,1.928c1.199,2.329,2.369,11.578,2.369,11.578
	L43.206,62.475z"/>
</svg>
