<?xml version="1.0" encoding="iso-8859-1"?>
<!-- Generator: Adobe Illustrator 19.0.0, SVG Export Plug-In . SVG Version: 6.00 Build 0)  -->
<svg version="1.1" id="Capa_1" xmlns="http://www.w3.org/2000/svg" xmlns:xlink="http://www.w3.org/1999/xlink" x="0px" y="0px"
	 viewBox="0 0 512 512" style="enable-background:new 0 0 512 512;" xml:space="preserve">
<g>
	<g>
		<path d="M437.189,255.912c55.27-50.178,88.74-102.012,68.823-137.956c-22.19-40.03-91.726-34.864-164.573-12.328
			C324.045,44.981,295.255,0.223,255.957,0.223c-39.213,0-67.968,44.562-85.374,105.006c-18.207-5.569-36.556-9.781-52.808-12.599
			c-5.772-18.17-22.603-31.46-42.661-31.46c-21.346,0-39.184,14.985-43.752,34.965c-11.403,4.979-19.952,12.23-25.27,21.822
			c-19.918,35.942,12.556,87.776,67.826,137.954C18.53,306.145-14.04,358.06,5.901,394.045
			c22.711,40.934,93.219,34.388,164.537,12.198c17.389,60.716,46.192,105.534,85.519,105.534c39.264,0,68.04-44.677,85.438-105.243
			c6.842,2.096,13.501,3.908,20.108,5.629c3.093,21.796,21.686,38.667,44.324,38.667c18.692,0,34.731-11.476,41.505-27.742
			c35.361-2.571,52.076-16.794,58.871-29.045C526.144,358.06,492.578,306.143,437.189,255.912z M32.129,379.526
			c-9.576-17.266,12.29-57.553,64.35-104.149c17.502,14.246,37.618,28.112,57.602,41.28c2.043,21.008,5.141,41.503,9.274,60.921
			C94.284,398.927,42.806,398.786,32.129,379.526z M151.473,278.987c-11.072-7.753-22.225-15.445-31.785-23.06
			c9.561-7.61,20.717-15.295,31.787-23.04c-0.284,7.713-0.428,15.43-0.428,23.115C151.048,263.644,151.194,271.317,151.473,278.987z
			 M154.093,195.204c-19.985,13.16-40.106,27.02-57.616,41.258c-51.927-46.529-73.723-86.74-64.158-103.986
			c0.86-1.55,2.532-2.763,3.974-4.072c7.769,13.487,22.17,22.689,38.821,22.689c18.871,0,34.998-11.714,41.657-28.226
			c14.351,2.68,30.612,6.507,46.607,11.452C159.244,153.724,156.14,174.206,154.093,195.204z M325.273,174.767
			c-6.065-3.579-12.147-7.131-18.282-10.532c-5.386-2.986-10.798-5.761-16.204-8.601c10.014-4.251,19.714-8.002,29.243-11.513
			C322.042,153.849,323.772,164.117,325.273,174.767z M255.957,30.197c20.415,0,42.176,33.141,56.971,84.949
			c-19.213,6.981-38.253,14.945-56.556,23.341c-19.396-9.028-38.594-16.974-57.273-23.757
			C213.891,63.161,235.596,30.197,255.957,30.197z M191.925,143.935c9.614,3.553,19.405,7.498,29.285,11.701
			c-5.49,2.859-10.931,5.728-16.112,8.599h-0.015c-6.195,3.435-12.336,7.024-18.458,10.639
			C188.14,164.116,189.889,153.752,191.925,143.935z M186.609,337.001c6.195,3.662,12.411,7.29,18.679,10.766
			c5.404,2.994,10.869,5.556,16.303,8.41c-10.179,4.33-20.029,8.134-29.707,11.701C189.856,358.081,188.117,347.735,186.609,337.001
			z M255.957,481.804c-20.442,0-42.235-33.231-57.029-85.164c19.636-7.144,38.854-15.102,56.9-23.346
			c19.348,9.008,38.405,16.746,57.105,23.546C298.137,448.658,276.373,481.804,255.957,481.804z M320.095,367.58
			c-9.567-3.536-19.149-7.272-28.953-11.436c5.442-2.827,10.739-5.636,15.687-8.377c6.196-3.434,12.337-7.023,18.458-10.639
			C323.799,347.704,322.087,357.913,320.095,367.58z M329.294,299.613c-11.736,7.348-23.922,14.679-36.997,21.928
			c-12.261,6.796-24.299,12.931-36.191,18.738c-12.105-5.911-24.24-12.06-36.285-18.738c-13.154-7.291-25.411-14.667-37.21-22.058
			c-1.004-14.004-1.59-28.495-1.59-43.482c0-15.029,0.587-29.562,1.598-43.603c11.74-7.349,23.931-14.685,37.012-21.935h-0.015
			c12.339-6.838,24.453-13.013,36.417-18.849c12.136,5.926,24.306,12.122,36.439,18.849c13.008,7.21,25.133,14.504,36.814,21.811
			c1.015,14.078,1.605,28.655,1.605,43.728C330.891,271.035,330.304,285.57,329.294,299.613z M479.784,132.476
			c9.565,17.248-13.231,57.462-65.158,103.989c-17.569-14.287-36.761-28.193-56.82-41.39c-2.043-20.915-5.136-41.317-9.25-60.65
			C417.663,113.065,469.144,113.213,479.784,132.476z M360.434,232.754c11.141,7.791,21.37,15.522,30.986,23.174
			c-9.616,7.66-19.837,15.397-30.982,23.196c0.284-7.715,0.428-15.436,0.428-23.123
			C360.865,248.271,360.721,240.511,360.434,232.754z M479.975,379.526c-4.024,7.256-15.753,11.776-31.323,13.369
			c-5.609-18.443-22.573-31.986-42.826-31.986c-16.304,0-30.472,8.809-38.355,21.833c-6.219-1.645-12.44-3.302-18.884-5.3
			c4.107-19.334,7.194-39.734,9.232-60.643c20.061-13.209,39.246-27.125,56.811-41.421
			C466.686,321.971,489.55,362.26,479.975,379.526z"/>
	</g>
</g>
<g>
	<g>
		<path d="M255.957,211.04c-24.792,0-44.961,20.168-44.961,44.961c0,24.792,20.167,44.961,44.961,44.961
			c24.792,0,44.961-20.168,44.961-44.961C300.917,231.208,280.749,211.04,255.957,211.04z"/>
	</g>
</g>
<g>
</g>
<g>
</g>
<g>
</g>
<g>
</g>
<g>
</g>
<g>
</g>
<g>
</g>
<g>
</g>
<g>
</g>
<g>
</g>
<g>
</g>
<g>
</g>
<g>
</g>
<g>
</g>
<g>
</g>
</svg>
