<?xml version="1.0" encoding="utf-8"?>
<!-- Generator: Adobe Illustrator 16.0.0, SVG Export Plug-In . SVG Version: 6.00 Build 0)  -->
<!DOCTYPE svg PUBLIC "-//W3C//DTD SVG 1.1//EN" "http://www.w3.org/Graphics/SVG/1.1/DTD/svg11.dtd">
<svg version="1.1" id="圖層_1" xmlns="http://www.w3.org/2000/svg" xmlns:xlink="http://www.w3.org/1999/xlink" x="0px" y="0px"
	 width="85.04px" height="85.04px" viewBox="0 0 85.04 85.04" enable-background="new 0 0 85.04 85.04" xml:space="preserve">
<path fill="#432A12" d="M55.409,41.347l0.207,4.207l0.016,0.333l0.252,0.217l5.06,4.387l0.271,6.732l0.371-6.178l4.568,3.961
	l0.205,0.18l0.225,0.007l5.888,0.3l-2.132-1.221l-3.324-0.582l-5.189-4.499l0.62-4.804c1.39-0.584,1.714-1.499,1.989-3.058
	c0.109-0.617-0.064-1.383-0.508-2.01c2.172-3.486,2.175-7.332,2.175-7.332c-0.408,2.884-1.472,5.351-2.403,7.066
	c-0.197-0.217-0.42-0.417-0.693-0.567c1.263-3.654,0.627-7.125,0.627-7.125c0.119,2.712-0.391,5.172-0.947,6.999
	c-0.301-0.117-0.625-0.202-0.999-0.207c-0.358-1.855-1.429-10.287-6.843-10.488c0,0-3.274-0.378-4.033,2.04l-20.798-7.021
	c0,0-6.146-2.718-3.146,4.128c0,0-6.18-0.977-5.479,1.553c0.679,2.45,0.684,5.274,14.525,4.193c-1.681,0.231-7.045,1.244-6.19,3.124
	c2.456,5.401,10.989,4.105,10.989,4.105L26.4,47.152l-8.213,0.322l1.723,0.61l6.972,0.535l18.246-8.104l0.203-0.042l0.313,11.389
	l-3.121,8.898l-6.484,3.578l3.625-0.686l3.57-2.047l0.165-0.115l0.063-0.156l3.728-9.063l0.058-0.14l-0.006-0.166l-0.354-11.809
	l4.829-0.986c0,0,0.557,0.868,1.688,1.517l-0.958,4.231l-0.063,0.275l0.13,0.254l6.683,12.969l0.117,0.229l0.218,0.106l6.89,3.09
	l-2.198-2.319l-3.75-2.032L54.03,44.988l0.846-3.73C55.042,41.295,55.221,41.326,55.409,41.347z M61.353,40.261
	c0.62,0,1.123,0.503,1.123,1.123c0,0.621-0.503,1.123-1.123,1.123s-1.123-0.502-1.123-1.123
	C60.23,40.764,60.733,40.261,61.353,40.261z M57.601,41.184c0.001,0.118-0.011,0.232,0.002,0.353
	c0.185,1.745,0.953,3.004,3.323,3.124l0.011,3.762l-3.782-3.276l-0.188-3.833C57.17,41.28,57.383,41.238,57.601,41.184z"/>
</svg>
