<?xml version="1.0" encoding="utf-8"?>
<!-- Generator: Adobe Illustrator 16.0.0, SVG Export Plug-In . SVG Version: 6.00 Build 0)  -->
<!DOCTYPE svg PUBLIC "-//W3C//DTD SVG 1.1//EN" "http://www.w3.org/Graphics/SVG/1.1/DTD/svg11.dtd">
<svg version="1.1" id="圖層_1" xmlns="http://www.w3.org/2000/svg" xmlns:xlink="http://www.w3.org/1999/xlink" x="0px" y="0px"
	 width="85.04px" height="85.04px" viewBox="0 0 85.04 85.04" enable-background="new 0 0 85.04 85.04" xml:space="preserve">
<path fill="#FBF0CD" d="M60.336,42.366L48.15,50.877c-0.127,0.088-0.274,0.133-0.424,0.133c-0.118,0-0.238-0.027-0.345-0.084
	c-0.244-0.127-0.397-0.381-0.397-0.656v-5.299H34.699c-1.898,0-3.437-1.314-3.437-3.212c0-1.897,1.538-3.157,3.437-3.157h12.284
	v-5.353c0-0.277,0.153-0.531,0.396-0.658c0.248-0.129,0.541-0.108,0.77,0.05l12.188,8.51c0.199,0.14,0.318,0.366,0.318,0.608
	S60.536,42.228,60.336,42.366z"/>
<path fill="#432A12" d="M56.297,52.815c-1.44,3.348-4.771,5.695-8.637,5.695H32.696c-5.184,0-9.402-4.219-9.402-9.401v-14.7
	c0-5.184,4.218-9.402,9.402-9.402h14.965c3.866,0,7.194,2.35,8.637,5.695l4.744,3.312c-0.211-7.201-6.131-12.996-13.381-12.996
	H32.696c-7.384,0-13.391,6.007-13.391,13.391v14.7c0,7.384,6.007,13.392,13.391,13.392h14.965c7.252,0,13.17-5.795,13.381-12.996
	L56.297,52.815z"/>
<path fill="#432A12" d="M65.438,40.772L45.667,26.967c-0.367-0.257-0.848-0.288-1.244-0.081c-0.396,0.208-0.646,0.619-0.646,1.067
	v8.231H33.529c-3.079,0-5.575,2.496-5.575,5.574c0,3.079,2.496,5.575,5.575,5.575h10.246v8.231c0,0.448,0.249,0.858,0.647,1.065
	c0.174,0.092,0.365,0.137,0.557,0.137c0.241,0,0.482-0.072,0.688-0.217l19.771-13.806c0.322-0.225,0.514-0.593,0.514-0.986
	C65.952,41.366,65.76,40.998,65.438,40.772z M60.336,42.367l-12.187,8.51c-0.127,0.088-0.274,0.133-0.424,0.133
	c-0.118,0-0.238-0.027-0.345-0.084c-0.244-0.127-0.397-0.381-0.397-0.656v-5.299H34.699c-1.899,0-3.437-1.314-3.437-3.212
	c0-1.897,1.539-3.157,3.437-3.157h12.284v-5.353c0-0.277,0.153-0.53,0.396-0.658c0.248-0.128,0.541-0.108,0.77,0.05l12.188,8.51
	c0.199,0.139,0.318,0.366,0.318,0.608C60.655,42.001,60.536,42.228,60.336,42.367z"/>
</svg>
