<?xml version="1.0" encoding="utf-8"?>
<!-- Generator: Adobe Illustrator 16.0.0, SVG Export Plug-In . SVG Version: 6.00 Build 0)  -->
<!DOCTYPE svg PUBLIC "-//W3C//DTD SVG 1.1//EN" "http://www.w3.org/Graphics/SVG/1.1/DTD/svg11.dtd">
<svg version="1.1" id="圖層_1" xmlns="http://www.w3.org/2000/svg" xmlns:xlink="http://www.w3.org/1999/xlink" x="0px" y="0px"
	 width="85.04px" height="85.04px" viewBox="0 0 85.04 85.04" enable-background="new 0 0 85.04 85.04" xml:space="preserve">
<path fill="#FBF0CD" d="M57.375,21.153H27.663c-4.051,0-7.334,3.08-7.334,6.876v27.459c0,3.799,3.283,6.877,7.334,6.877h29.713
	c4.052,0,7.335-3.078,7.335-6.877V28.03C64.71,24.233,61.427,21.153,57.375,21.153z"/>
<path fill="#432A12" d="M57.609,21.153H27.896c-4.051,0-7.334,3.079-7.334,6.877v27.458c0,3.8,3.283,6.878,7.334,6.878h29.713
	c4.052,0,7.335-3.078,7.335-6.878V28.03C64.944,24.232,61.661,21.153,57.609,21.153z M34.717,57.053h-7.419v-7.42h7.419V57.053z
	 M34.717,45.418h-7.419v-7.419h7.419V45.418z M34.717,33.786h-7.419v-7.42h7.419V33.786z M58.588,54.342H39.587
	c-0.521,0-0.942-0.424-0.942-0.943c0-0.521,0.422-0.943,0.942-0.943h19.001c0.521,0,0.945,0.422,0.945,0.943
	S59.109,54.342,58.588,54.342z M58.588,42.892H39.587c-0.521,0-0.942-0.422-0.942-0.944c0-0.521,0.422-0.943,0.942-0.943h19.001
	c0.521-0.001,0.945,0.422,0.945,0.943C59.534,42.469,59.109,42.892,58.588,42.892z M58.588,31.063H39.587
	c-0.521,0-0.942-0.422-0.942-0.944c0-0.521,0.422-0.944,0.942-0.944h19.001c0.521,0,0.945,0.423,0.945,0.944
	S59.109,31.063,58.588,31.063z"/>
<polygon fill="#432A12" points="27.372,30.563 30.592,33.368 34.598,28.742 33.917,27.058 30.484,31.374 28.491,29.577 "/>
<polygon fill="#432A12" points="27.372,42.506 30.592,45.311 34.598,40.685 33.917,39 30.484,43.317 28.491,41.521 "/>
<polygon fill="#432A12" points="27.372,53.928 30.592,56.731 34.598,52.105 33.917,50.422 30.484,54.738 28.491,52.941 "/>
</svg>
