<?xml version="1.0" encoding="utf-8"?>
<!-- Generator: Adobe Illustrator 16.0.0, SVG Export Plug-In . SVG Version: 6.00 Build 0)  -->
<!DOCTYPE svg PUBLIC "-//W3C//DTD SVG 1.1//EN" "http://www.w3.org/Graphics/SVG/1.1/DTD/svg11.dtd">
<svg version="1.1" id="圖層_1" xmlns="http://www.w3.org/2000/svg" xmlns:xlink="http://www.w3.org/1999/xlink" x="0px" y="0px"
	 width="85.04px" height="85.04px" viewBox="0 0 85.04 85.04" enable-background="new 0 0 85.04 85.04" xml:space="preserve">
<path fill="#FBF0CD" d="M58.928,21.418H27.172c-2.465,0-4.463,1.999-4.463,4.464v25.82c1.883,3.442,6.334,9.174,15.408,10.398
	h20.811c2.465,0,4.464-1.999,4.464-4.465V25.882C63.392,23.417,61.393,21.418,58.928,21.418z"/>
<path fill="#432A12" d="M58.928,21.418H27.173c-2.465,0-4.464,1.999-4.464,4.464v25.82c1.884,3.442,6.334,9.174,15.409,10.398h20.81
	c2.465,0,4.464-1.999,4.464-4.465V25.882C63.392,23.417,61.393,21.418,58.928,21.418z M50.118,24.362l-3.643,2.419l-1.184-2.419
	H50.118z M31.383,24.361H42.16l1.652,3.373l-9.324,6.221l-4.439-9.089C30.428,24.549,30.887,24.361,31.383,24.361z M25.665,27.509
	l7.525,14.628l-7.525,4.564V27.509z M24.756,51.159c0,0,1.852-0.102,5.986-2.521c0,0,3.571-1.821,3.799,2.489
	c0.296,5.621,3.84,8.771,6.713,9.66C41.254,60.79,30.111,60.609,24.756,51.159z M36.625,38.297l9.016-6.829l5.381,10.993
	l-9.015,6.831L36.625,38.297z M58.107,59.157H46.836l-1.887-3.855l8.987-6.885l4.751,9.703
	C58.262,58.752,58.838,59.157,58.107,59.157z M60.436,55.293l-3.84-7.84l3.84-2.588V55.293z M60.436,37.004l-6.751,4.501
	L48.303,30.51l9.223-6.149h0.581c1.286,0,2.329,1.249,2.329,2.792V37.004z"/>
</svg>
