<?xml version="1.0" encoding="iso-8859-1"?>
<!-- Generator: Adobe Illustrator 19.0.0, SVG Export Plug-In . SVG Version: 6.00 Build 0)  -->
<svg version="1.1" id="Capa_1" xmlns="http://www.w3.org/2000/svg" xmlns:xlink="http://www.w3.org/1999/xlink" x="0px" y="0px"
	 viewBox="0 0 512 512" style="enable-background:new 0 0 512 512;" xml:space="preserve">
<g>
	<g>
		<path d="M503.709,130.082l-241-120c-4.219-2.109-9.199-2.109-13.418,0l-241,120C3.208,132.631,0,137.816,0,143.5
			s3.208,10.869,8.291,13.418l241,120c2.109,1.055,4.409,1.582,6.709,1.582s4.6-0.527,6.709-1.582l241-120
			c5.083-2.549,8.291-7.734,8.291-13.418S508.792,132.631,503.709,130.082z"/>
	</g>
</g>
<g>
	<g>
		<path d="M503.709,355.082l-14.619-7.31L276.127,453.754c-6.211,3.105-13.169,4.746-20.127,4.746s-13.916-1.641-20.127-4.746
			L22.91,347.772l-14.619,7.31C3.208,357.631,0,362.816,0,368.5c0,5.684,3.208,10.869,8.291,13.418l241,120
			c2.109,1.055,4.409,1.582,6.709,1.582s4.6-0.527,6.709-1.582l241-120c5.083-2.549,8.291-7.734,8.291-13.418
			C512,362.816,508.792,357.631,503.709,355.082z"/>
	</g>
</g>
<g>
	<g>
		<path d="M503.709,280.082l-14.619-7.31L276.127,378.754c-6.211,3.105-13.169,4.746-20.127,4.746s-13.916-1.641-20.127-4.746
			L22.91,272.772l-14.619,7.31C3.208,282.631,0,287.816,0,293.5c0,5.684,3.208,10.869,8.291,13.418l241,120
			c2.109,1.055,4.409,1.582,6.709,1.582s4.6-0.527,6.709-1.582l241-120c5.083-2.549,8.291-7.734,8.291-13.418
			C512,287.816,508.792,282.631,503.709,280.082z"/>
	</g>
</g>
<g>
	<g>
		<path d="M503.709,205.082l-14.619-7.31L276.127,303.754c-6.211,3.105-13.169,4.746-20.127,4.746s-13.916-1.641-20.127-4.746
			L22.91,197.772l-14.619,7.31C3.208,207.631,0,212.816,0,218.5s3.208,10.869,8.291,13.418l241,120
			c2.109,1.055,4.409,1.582,6.709,1.582s4.6-0.527,6.709-1.582l241-120c5.083-2.549,8.291-7.734,8.291-13.418
			S508.792,207.631,503.709,205.082z"/>
	</g>
</g>
<g>
</g>
<g>
</g>
<g>
</g>
<g>
</g>
<g>
</g>
<g>
</g>
<g>
</g>
<g>
</g>
<g>
</g>
<g>
</g>
<g>
</g>
<g>
</g>
<g>
</g>
<g>
</g>
<g>
</g>
</svg>
