<?xml version="1.0" encoding="utf-8"?>
<!-- Generator: Adobe Illustrator 16.0.0, SVG Export Plug-In . SVG Version: 6.00 Build 0)  -->
<!DOCTYPE svg PUBLIC "-//W3C//DTD SVG 1.1//EN" "http://www.w3.org/Graphics/SVG/1.1/DTD/svg11.dtd">
<svg version="1.1" id="圖層_1" xmlns="http://www.w3.org/2000/svg" xmlns:xlink="http://www.w3.org/1999/xlink" x="0px" y="0px"
	 width="85.04px" height="85.04px" viewBox="0 0 85.04 85.04" enable-background="new 0 0 85.04 85.04" xml:space="preserve">
<path fill="#FBF0CD" d="M44.282,28.46c3.371-0.422,6.293,0.746,6.525,2.61s-2.311,3.718-5.68,4.14
	c-3.371,0.422-6.293-0.748-6.525-2.611C38.37,30.734,40.913,28.882,44.282,28.46z M24.506,48.195l8.656-7.128l19.502-0.004
	c0.176,0,0.344-0.097,0.473-0.269l3.937-4.875c0.084,0.055,0.181,0.084,0.277,0.084h4.987l-9.133,12.191H24.506z M53.206,56.666
	H24.504l7.836-6.449h21.136c0.175,0,0.342-0.096,0.471-0.269l4.104-5.473l4.287,0.002L53.206,56.666z"/>
<path fill="#432A12" d="M63.999,42.452h-4.562l5.03-6.716c0.214-0.284,0.283-0.725,0.179-1.113
	c-0.104-0.388-0.362-0.643-0.649-0.643h-5.492l5.963-7.393c0.216-0.283,0.283-0.724,0.182-1.113
	c-0.104-0.388-0.359-0.642-0.646-0.642H39c-0.121,0-0.24,0.044-0.344,0.132L21.395,39.177c-0.275,0.227-0.411,0.693-0.33,1.136
	c0.08,0.444,0.356,0.754,0.672,0.754l8.418-0.002l-8.76,7.26c-0.275,0.227-0.411,0.693-0.33,1.137
	c0.08,0.443,0.356,0.754,0.672,0.754h7.65l-7.992,6.58c-0.275,0.229-0.411,0.693-0.33,1.14c0.08,0.442,0.356,0.754,0.672,0.754
	h31.611c0.175,0,0.342-0.097,0.471-0.269l10.648-14.213c0.214-0.283,0.283-0.724,0.18-1.109
	C64.543,42.709,64.286,42.452,63.999,42.452z M44.153,28.457c3.371-0.422,6.293,0.747,6.525,2.611
	c0.232,1.864-2.311,3.717-5.68,4.139c-3.372,0.422-6.292-0.747-6.525-2.611C38.24,30.731,40.783,28.879,44.153,28.457z
	 M24.377,48.192l8.657-7.128l19.501-0.004c0.176,0,0.344-0.096,0.473-0.268l3.937-4.876C57.029,35.971,57.125,36,57.222,36h4.987
	l-9.133,12.192H24.377z M53.077,56.663H24.376l7.835-6.449h21.136c0.175,0,0.342-0.096,0.471-0.269l4.104-5.473l4.287,0.002
	L53.077,56.663z"/>
</svg>
