<?xml version="1.0" encoding="utf-8"?>
<!-- Generator: Adobe Illustrator 16.0.0, SVG Export Plug-In . SVG Version: 6.00 Build 0)  -->
<!DOCTYPE svg PUBLIC "-//W3C//DTD SVG 1.1//EN" "http://www.w3.org/Graphics/SVG/1.1/DTD/svg11.dtd">
<svg version="1.1" id="圖層_1" xmlns="http://www.w3.org/2000/svg" xmlns:xlink="http://www.w3.org/1999/xlink" x="0px" y="0px"
	 width="85.04px" height="85.04px" viewBox="0 0 85.04 85.04" enable-background="new 0 0 85.04 85.04" xml:space="preserve">
<path fill="#FBF0CD" d="M45.043,26.559c1.402,0,2.541,1.138,2.541,2.542c0,1.404-1.139,2.542-2.541,2.542
	c-1.404,0-2.542-1.138-2.542-2.542C42.501,27.697,43.639,26.559,45.043,26.559z M43.893,49.549l1.73-2.078l0.692,0.75
	c0,0-2.194,4.623-5.949,4.795c0,0-3.176,0.58-3.294-3.002l3.466-12.363c0,0,0.463-1.155-0.982-1.562l-0.924-0.057l0.117-1.097
	l8.261-1.329l-4.734,15.597C42.277,49.204,41.873,51.514,43.893,49.549z"/>
<path fill="#432A12" d="M63.438,60.719c0-0.018,0.001-0.029,0.001-0.053c0-0.119-0.001-0.293-0.001-0.521
	c-0.021-0.471,0.034-1.096-0.072-2c-0.05-0.454-0.107-0.954-0.173-1.5c-0.079-0.539-0.228-1.1-0.362-1.709
	c-0.304-1.205-0.766-2.545-1.424-3.938c-0.305-0.711-0.754-1.389-1.16-2.111c-0.484-0.68-0.953-1.41-1.535-2.083
	c-1.121-1.388-2.531-2.657-4.108-3.813c-1.642-1.072-3.457-2.003-5.431-2.619c-0.562-0.157-1.129-0.287-1.705-0.402
	c0.104-0.041,0.205-0.09,0.31-0.133c0.132-0.054,0.267-0.109,0.394-0.167c0.146-0.068,0.295-0.142,0.438-0.215
	c0.135-0.068,0.27-0.135,0.398-0.208c0.129-0.073,0.263-0.151,0.393-0.229c0.137-0.083,0.273-0.167,0.411-0.255
	c0.114-0.075,0.228-0.155,0.338-0.234c0.144-0.099,0.284-0.199,0.422-0.305c0.099-0.075,0.19-0.154,0.287-0.232
	c0.146-0.117,0.289-0.235,0.429-0.359c0.078-0.071,0.155-0.146,0.231-0.22c0.147-0.138,0.296-0.277,0.437-0.422
	c0.063-0.064,0.117-0.13,0.18-0.194c0.147-0.162,0.299-0.325,0.438-0.495c0.045-0.051,0.084-0.105,0.127-0.159
	c0.149-0.187,0.301-0.376,0.438-0.573c0.022-0.036,0.048-0.072,0.071-0.107c0.148-0.218,0.297-0.437,0.436-0.665
	c0.007-0.012,0.014-0.025,0.021-0.037c1.084-1.809,1.709-3.913,1.709-6.163c0-6.741-5.574-12.227-12.426-12.227
	c-0.002,0-0.003,0-0.004,0c0,0-0.002,0-0.004,0c-6.85,0-12.423,5.486-12.423,12.227c0,2.25,0.625,4.354,1.708,6.163
	c0.006,0.012,0.013,0.025,0.02,0.037c0.139,0.228,0.282,0.447,0.435,0.665c0.025,0.035,0.047,0.072,0.072,0.107
	c0.139,0.197,0.287,0.386,0.438,0.573c0.041,0.053,0.081,0.108,0.126,0.159c0.14,0.17,0.287,0.333,0.437,0.495
	c0.061,0.064,0.119,0.13,0.18,0.194c0.141,0.146,0.286,0.284,0.435,0.422c0.076,0.073,0.153,0.149,0.232,0.22
	c0.139,0.124,0.282,0.242,0.428,0.359c0.096,0.079,0.189,0.157,0.287,0.232c0.138,0.105,0.279,0.206,0.422,0.305
	c0.112,0.079,0.222,0.159,0.338,0.234c0.136,0.088,0.275,0.172,0.411,0.255c0.13,0.078,0.261,0.155,0.392,0.229
	c0.131,0.074,0.266,0.14,0.399,0.208c0.145,0.074,0.291,0.147,0.439,0.215c0.129,0.058,0.26,0.114,0.391,0.167
	c0.102,0.043,0.202,0.093,0.308,0.133c-0.576,0.115-1.145,0.245-1.705,0.402c-1.973,0.616-3.79,1.547-5.429,2.619
	c-1.577,1.156-2.989,2.425-4.11,3.813c-0.583,0.673-1.049,1.403-1.536,2.083c-0.406,0.726-0.855,1.4-1.16,2.111
	c-0.658,1.395-1.12,2.731-1.423,3.938c-0.137,0.609-0.284,1.17-0.363,1.709c-0.063,0.546-0.122,1.046-0.173,1.5
	c-0.106,0.904-0.052,1.529-0.072,2c0,0.229-0.001,0.398-0.001,0.521c0,0.021,0.001,0.035,0.001,0.053c0,0.006-0.001,0.02-0.001,0.02
	h0.001c0.004,0.125,0.007,0.133,0.005,0.149h0.266c-0.095,0.263-0.186,0.481-0.273,0.637h40.994c0,0-0.036-0.233-0.115-0.637h0.125
	c-0.002-0.019,0.001-0.024,0.006-0.149l0,0C63.438,60.738,63.438,60.725,63.438,60.719z M45.043,26.559
	c1.402,0,2.541,1.138,2.541,2.542c0,1.404-1.139,2.542-2.541,2.542c-1.404,0-2.542-1.138-2.542-2.542
	C42.501,27.697,43.639,26.559,45.043,26.559z M43.893,49.549l1.73-2.077l0.692,0.75c0,0-2.194,4.623-5.95,4.795
	c0,0-3.175,0.579-3.293-3.003l3.466-12.362c0,0,0.463-1.156-0.983-1.562l-0.923-0.057l0.116-1.097l8.261-1.329l-4.734,15.597
	C42.277,49.204,41.872,51.515,43.893,49.549z"/>
</svg>
