<?xml version="1.0" encoding="iso-8859-1"?>
<!-- Generator: Adobe Illustrator 19.0.0, SVG Export Plug-In . SVG Version: 6.00 Build 0)  -->
<svg version="1.1" id="Capa_1" xmlns="http://www.w3.org/2000/svg" xmlns:xlink="http://www.w3.org/1999/xlink" x="0px" y="0px"
	 viewBox="0 0 512 512" style="enable-background:new 0 0 512 512;" xml:space="preserve">
<g>
	<g>
		<path d="M256,361c-41.353,0-75,33.647-75,75c0,41.353,33.647,76,75,76c41.353,0,75-34.647,75-76C331,394.647,297.353,361,256,361z
			"/>
	</g>
</g>
<g>
	<g>
		<path d="M256,0c-41.353,0-75,34.647-75,76c0,41.353,33.647,75,75,75c41.353,0,75-33.647,75-75C331,34.647,297.353,0,256,0z"/>
	</g>
</g>
<g>
	<g>
		<path d="M436,181c-41.353,0-75,33.647-75,75c0,41.353,33.647,75,75,75c41.353,0,76-33.647,76-75C512,214.647,477.353,181,436,181z
			"/>
	</g>
</g>
<g>
	<g>
		<path d="M76,181c-41.353,0-76,33.647-76,75c0,41.353,34.647,75,76,75s75-33.647,75-75C151,214.647,117.353,181,76,181z"/>
	</g>
</g>
<g>
	<g>
		<path d="M358.987,56.103C360.233,62.56,361,69.187,361,76c0,16.208-4.001,31.386-10.589,45.106
			c15.742,11.06,29.423,24.741,40.483,40.483C404.614,155.001,419.792,151,436,151c6.813,0,13.44,0.767,19.896,2.012
			C434.454,111.478,400.521,77.545,358.987,56.103z"/>
	</g>
</g>
<g>
	<g>
		<path d="M151,76c0-6.813,0.767-13.44,2.012-19.896c-41.533,21.441-75.467,55.375-96.908,96.908C62.56,151.767,69.187,151,76,151
			c16.208,0,31.386,4.001,45.106,10.589c11.06-15.742,24.741-29.423,40.483-40.483C155.001,107.386,151,92.208,151,76z"/>
	</g>
</g>
<g>
	<g>
		<path d="M161.589,390.894c-15.742-11.06-29.423-24.741-40.483-40.483C107.386,356.999,92.208,361,76,361
			c-6.813,0-13.44-0.767-19.896-2.012c21.442,41.534,55.375,75.467,96.909,96.909C151.767,449.44,151,442.813,151,436
			C151,419.792,155.001,404.614,161.589,390.894z"/>
	</g>
</g>
<g>
	<g>
		<path d="M436,361c-16.208,0-31.386-4.001-45.106-10.589c-11.06,15.742-24.741,29.423-40.483,40.483
			C356.999,404.614,361,419.792,361,436c0,6.813-0.767,13.44-2.012,19.896c41.534-21.442,75.467-55.375,96.909-96.909
			C449.44,360.233,442.813,361,436,361z"/>
	</g>
</g>
<g>
</g>
<g>
</g>
<g>
</g>
<g>
</g>
<g>
</g>
<g>
</g>
<g>
</g>
<g>
</g>
<g>
</g>
<g>
</g>
<g>
</g>
<g>
</g>
<g>
</g>
<g>
</g>
<g>
</g>
</svg>
