<?xml version="1.0" encoding="iso-8859-1"?>
<!-- Generator: Adobe Illustrator 16.0.0, SVG Export Plug-In . SVG Version: 6.00 Build 0)  -->
<!DOCTYPE svg PUBLIC "-//W3C//DTD SVG 1.1//EN" "http://www.w3.org/Graphics/SVG/1.1/DTD/svg11.dtd">
<svg version="1.1" id="&#x5716;&#x5C64;_1" xmlns="http://www.w3.org/2000/svg" xmlns:xlink="http://www.w3.org/1999/xlink" x="0px"
	 y="0px" width="141.732px" height="141.732px" viewBox="0 0 141.732 141.732" style="enable-background:new 0 0 141.732 141.732;"
	 xml:space="preserve">
<circle style="fill:none;stroke:#000000;stroke-width:20;stroke-miterlimit:10;" cx="-325.145" cy="518.856" r="203.844"/>
<path style="fill:none;stroke:#000000;stroke-width:14;stroke-miterlimit:10;stroke-dasharray:50,20;" d="M-325.146,696.147
	c-97.757,0-177.291-79.537-177.291-177.291c0-97.757,79.534-177.291,177.291-177.291c97.759,0,177.293,79.534,177.293,177.291
	C-147.853,616.61-227.387,696.147-325.146,696.147z"/>
<g>
	<g>
		<path style="fill:none;stroke:#000000;stroke-width:20;stroke-miterlimit:10;" d="M-391.966,455.699
			c-1.864,1.117-4.672,3.213-7.986,6.007"/>
		<path style="fill:none;stroke:#000000;stroke-width:20;stroke-miterlimit:10;stroke-dasharray:20.1602,5.0401;" d="
			M-403.75,465.021c-19.798,17.84-49.911,53.462-18.7,61.006c21.597,4.631,45.189-48.212,52.161-63.597
			c7.746-17.099,27.422-56.646,50.269-47.29c31.03,12.71,8.994,48.373,0.313,62.99c-12.244,20.207-35.135,36.623-52.123,53.655
			c-12.954,12.677-51.422,38.629-41.009,58.689c26.792,51.635,81.197-30.175,91.64-45.369
			c26.818-39.021,35.918-92.935,72.783-95.468c22.831-1.569,42.685,17.96,20.631,59.831c-28.053,53.246-58.47,48.718-93.914,88.297
			c-15.745,16.562-17.708,42.119,8.567,40.974c15.979-0.701,37.939-12.947,56.246-40.556"/>
		<path style="fill:none;stroke:#000000;stroke-width:20;stroke-miterlimit:10;" d="M-255.515,596.079
			c1.739-2.725,3.442-5.592,5.102-8.604"/>
	</g>
</g>
<g>
	<g>
		<g>
			<path style="fill:#000000;" d="M-378.404,314.74c-2.857-9.887-5.714-19.772-8.571-29.658c-2.144-7.42-13.725-4.261-11.571,3.189
				c2.857,9.887,5.714,19.772,8.571,29.658C-387.832,325.35-376.251,322.19-378.404,314.74L-378.404,314.74z"/>
		</g>
	</g>
	<g>
		<g>
			<path style="fill:#000000;" d="M-386.908,242.879c-3.636,14.713-7.272,29.427-10.908,44.141
				c3.343-0.883,6.686-1.766,10.028-2.647c-10.924-10.506-21.848-21.011-32.771-31.516c-0.882,3.343-1.765,6.686-2.647,10.028
				c14.56-4.208,29.12-8.417,43.68-12.625c7.419-2.145,4.261-13.725-3.19-11.571c-14.56,4.208-29.12,8.417-43.68,12.625
				c-4.257,1.23-5.952,6.85-2.647,10.028c10.924,10.505,21.848,21.01,32.771,31.515c3.169,3.048,8.921,1.834,10.028-2.647
				c3.636-14.713,7.272-29.426,10.908-44.14C-373.48,238.556-385.052,235.37-386.908,242.879z"/>
		</g>
	</g>
</g>
<g>
	<g>
		<g>
			<path style="fill:#000000;" d="M-321.599,311.28c0.33-12.283,0.66-24.567,0.99-36.851c0.208-7.743-11.792-7.723-12,0
				c-0.33,12.283-0.66,24.567-0.99,36.851C-333.807,319.023-321.807,319.003-321.599,311.28L-321.599,311.28z"/>
		</g>
	</g>
	<g>
		<g>
			<path style="fill:#000000;" d="M-311.01,253.382c-0.49,8.26-7.076,14.061-15.218,14.104c-8.268,0.044-14.062-7.478-14.104-15.215
				c-0.044-8.269,7.479-14.063,15.216-14.105C-316.848,238.121-311.053,245.646-311.01,253.382c0.042,7.736,12.042,7.74,12,0
				c-0.082-14.926-11.336-26.34-26.105-27.216c-14.889-0.883-26.383,12.061-27.216,26.105
				c-0.882,14.889,12.059,26.384,26.104,27.216c14.89,0.881,26.385-12.058,27.218-26.105
				C-298.552,245.649-310.555,245.693-311.01,253.382z"/>
		</g>
	</g>
</g>
<g>
	<g>
		<g>
			<path style="fill:#000000;" d="M-507.072,412.223c-9.011-4.97-18.021-9.94-27.032-14.91c-6.78-3.74-12.833,6.624-6.057,10.361
				c9.011,4.97,18.021,9.94,27.032,14.91C-506.348,426.324-500.295,415.96-507.072,412.223L-507.072,412.223z"/>
		</g>
	</g>
	<g>
		<g>
			<path style="fill:#000000;" d="M-563.925,367.449c7.833,12.976,15.666,25.95,23.499,38.926c1.727-3.01,3.454-6.019,5.181-9.028
				c-15.153,0.296-30.305,0.591-45.458,0.887c1.727,3.01,3.454,6.019,5.181,9.028c7.32-13.271,14.64-26.542,21.959-39.813
				c3.74-6.78-6.624-12.833-10.361-6.057c-7.32,13.271-14.64,26.542-21.959,39.813c-2.148,3.896,0.521,9.119,5.181,9.028
				c15.153-0.296,30.305-0.591,45.458-0.887c4.47-0.087,7.579-5.056,5.181-9.028c-7.833-12.976-15.666-25.95-23.499-38.926
				C-557.557,354.778-567.936,360.807-563.925,367.449z"/>
		</g>
	</g>
</g>
<g>
	<g>
		<g>
			<path style="fill:#000000;" d="M-469.416,369.571c-8.453-8.92-16.905-17.839-25.357-26.758
				c-5.333-5.627-13.804,2.873-8.485,8.484c8.453,8.92,16.905,17.839,25.357,26.758
				C-472.569,383.683-464.098,375.183-469.416,369.571L-469.416,369.571z"/>
		</g>
	</g>
	<g>
		<g>
			<path style="fill:#000000;" d="M-502.868,321.143c5.493,6.203,4.942,14.928-0.787,20.735c-5.814,5.893-15.224,4.647-20.731-0.787
				c-5.893-5.815-4.649-15.224,0.785-20.732C-517.788,314.465-508.377,315.71-502.868,321.143c5.512,5.438,14.001-3.045,8.485-8.484
				c-10.634-10.489-26.621-10.603-37.704-0.784c-11.172,9.896-10.101,27.184-0.785,37.701c9.896,11.174,27.184,10.104,37.702,0.787
				c11.173-9.896,10.103-27.185,0.787-37.704C-499.523,306.854-507.979,315.373-502.868,321.143z"/>
		</g>
	</g>
</g>
<g>
	<g>
		<g>
			<path style="fill:#000000;" d="M-529.262,572.116c-9.885,2.856-19.771,5.714-29.656,8.57c-7.419,2.145-4.261,13.726,3.19,11.572
				c9.885-2.857,19.771-5.715,29.656-8.572C-518.652,581.543-521.811,569.962-529.262,572.116L-529.262,572.116z"/>
		</g>
	</g>
	<g>
		<g>
			<path style="fill:#000000;" d="M-601.122,580.618c14.714,3.637,29.428,7.273,44.142,10.91c-0.882-3.343-1.765-6.686-2.647-10.028
				c-10.506,10.923-21.012,21.847-31.518,32.771c3.343,0.882,6.686,1.765,10.028,2.647c-4.208-14.561-8.416-29.12-12.624-43.68
				c-2.145-7.42-13.725-4.261-11.571,3.189c4.208,14.561,8.416,29.12,12.624,43.68c1.23,4.258,6.85,5.952,10.028,2.647
				c10.506-10.923,21.012-21.847,31.518-32.771c3.048-3.169,1.833-8.92-2.647-10.028c-14.714-3.636-29.428-7.272-44.142-10.908
				C-605.445,567.19-608.631,578.763-601.122,580.618z"/>
		</g>
	</g>
</g>
<g>
	<g>
		<g>
			<path style="fill:#000000;" d="M-532.721,515.311c-12.283-0.33-24.566-0.66-36.85-0.99c-7.743-0.208-7.723,11.792,0,12
				c12.283,0.33,24.566,0.66,36.85,0.99C-524.978,527.519-524.999,515.519-532.721,515.311L-532.721,515.311z"/>
		</g>
	</g>
	<g>
		<g>
			<path style="fill:#000000;" d="M-590.618,504.721c8.26,0.49,14.061,7.076,14.104,15.218c0.044,8.269-7.478,14.063-15.216,14.104
				c-8.268,0.044-14.062-7.478-14.104-15.215C-605.879,510.559-598.355,504.764-590.618,504.721c7.736-0.043,7.74-12.043,0-12
				c-14.925,0.083-26.342,11.336-27.216,26.106c-0.881,14.889,12.06,26.383,26.104,27.215c14.889,0.883,26.384-12.058,27.216-26.104
				c0.881-14.891-12.058-26.384-26.104-27.218C-598.351,492.262-598.307,504.265-590.618,504.721z"/>
		</g>
	</g>
</g>
<g>
	<g>
		<g>
			<path style="fill:#000000;" d="M-431.779,700.783c-4.97,9.011-9.939,18.021-14.908,27.031c-3.74,6.78,6.624,12.833,10.361,6.057
				c4.97-9.011,9.939-18.021,14.908-27.031C-417.678,700.06-428.042,694.007-431.779,700.783L-431.779,700.783z"/>
		</g>
	</g>
	<g>
		<g>
			<path style="fill:#000000;" d="M-476.552,757.636c12.976-7.833,25.952-15.666,38.928-23.499
				c-3.009-1.727-6.019-3.454-9.028-5.181c0.295,15.153,0.59,30.306,0.885,45.459c3.009-1.727,6.019-3.454,9.028-5.181
				c-13.271-7.32-26.542-14.64-39.813-21.96c-6.78-3.74-12.833,6.624-6.057,10.361c13.271,7.32,26.542,14.641,39.813,21.96
				c3.896,2.148,9.119-0.521,9.028-5.181c-0.295-15.153-0.59-30.306-0.885-45.459c-0.087-4.471-5.056-7.579-9.028-5.181
				c-12.976,7.833-25.952,15.666-38.928,23.499C-489.223,751.267-483.195,761.646-476.552,757.636z"/>
		</g>
	</g>
</g>
<g>
	<g>
		<g>
			<path style="fill:#000000;" d="M-474.431,663.128c-8.918,8.452-17.837,16.904-26.756,25.356
				c-5.626,5.332,2.873,13.804,8.485,8.484c8.918-8.452,17.837-16.904,26.756-25.356
				C-460.319,666.28-468.818,657.809-474.431,663.128L-474.431,663.128z"/>
		</g>
	</g>
	<g>
		<g>
			<path style="fill:#000000;" d="M-522.857,696.577c6.202-5.491,14.927-4.939,20.733,0.788c5.894,5.814,4.648,15.225-0.786,20.733
				c-5.813,5.892-15.224,4.647-20.731-0.785C-529.536,711.498-528.291,702.088-522.857,696.577
				c5.436-5.512-3.045-14.001-8.485-8.484c-10.488,10.635-10.604,26.621-0.784,37.705c9.896,11.172,27.184,10.101,37.702,0.785
				c11.173-9.896,10.104-27.186,0.786-37.702c-9.897-11.173-27.184-10.104-37.704-0.788
				C-537.147,693.232-528.628,701.688-522.857,696.577z"/>
		</g>
	</g>
</g>
<g>
	<g>
		<g>
			<path style="fill:#000000;" d="M-271.886,722.973c2.857,9.886,5.715,19.771,8.572,29.655c2.145,7.42,13.725,4.261,11.571-3.189
				c-2.857-9.886-5.715-19.771-8.572-29.655C-262.459,712.363-274.04,715.522-271.886,722.973L-271.886,722.973z"/>
		</g>
	</g>
	<g>
		<g>
			<path style="fill:#000000;" d="M-263.383,794.833c3.637-14.714,7.273-29.428,10.91-44.143c-3.343,0.883-6.686,1.766-10.028,2.647
				c10.923,10.507,21.846,21.013,32.77,31.519c0.882-3.343,1.765-6.686,2.647-10.027c-14.56,4.207-29.12,8.416-43.68,12.623
				c-7.419,2.145-4.261,13.726,3.19,11.572c14.56-4.209,29.12-8.416,43.68-12.625c4.257-1.23,5.952-6.85,2.647-10.027
				c-10.923-10.507-21.846-21.013-32.77-31.519c-3.169-3.049-8.921-1.834-10.028,2.647c-3.637,14.714-7.273,29.428-10.91,44.143
				C-276.811,799.156-265.239,802.343-263.383,794.833z"/>
		</g>
	</g>
</g>
<g>
	<g>
		<g>
			<path style="fill:#000000;" d="M-328.69,726.433c-0.33,12.283-0.66,24.565-0.99,36.849c-0.208,7.743,11.792,7.723,12,0
				c0.33-12.283,0.66-24.565,0.99-36.849C-316.482,718.689-328.482,718.71-328.69,726.433L-328.69,726.433z"/>
		</g>
	</g>
	<g>
		<g>
			<path style="fill:#000000;" d="M-339.28,784.328c0.49-8.259,7.076-14.06,15.217-14.104c8.269-0.045,14.063,7.478,14.105,15.216
				c0.045,8.267-7.479,14.063-15.215,14.104C-333.442,799.59-339.236,792.066-339.28,784.328c-0.043-7.736-12.043-7.74-12,0
				c0.084,14.927,11.335,26.343,26.107,27.217c14.888,0.881,26.382-12.061,27.215-26.104c0.883-14.89-12.061-26.385-26.105-27.216
				c-14.889-0.882-26.384,12.058-27.217,26.104C-351.738,792.062-339.736,792.018-339.28,784.328z"/>
		</g>
	</g>
</g>
<g>
	<g>
		<g>
			<path style="fill:#000000;" d="M-143.218,625.49c9.01,4.97,18.021,9.938,27.031,14.908c6.78,3.739,12.833-6.624,6.057-10.361
				c-9.01-4.97-18.021-9.938-27.031-14.908C-143.942,611.39-149.995,621.753-143.218,625.49L-143.218,625.49z"/>
		</g>
	</g>
	<g>
		<g>
			<path style="fill:#000000;" d="M-86.365,670.264c-7.833-12.976-15.667-25.952-23.5-38.928c-1.727,3.01-3.454,6.019-5.181,9.028
				c15.153-0.295,30.306-0.59,45.459-0.885c-1.727-3.01-3.454-6.019-5.181-9.028c-7.32,13.271-14.64,26.542-21.959,39.813
				c-3.74,6.78,6.624,12.833,10.361,6.057c7.32-13.271,14.64-26.542,21.959-39.813c2.148-3.896-0.521-9.119-5.181-9.028
				c-15.153,0.295-30.306,0.59-45.459,0.885c-4.47,0.087-7.579,5.056-5.181,9.028c7.833,12.976,15.667,25.952,23.5,38.928
				C-92.733,682.935-82.354,676.906-86.365,670.264z"/>
		</g>
	</g>
</g>
<g>
	<g>
		<g>
			<path style="fill:#000000;" d="M-180.873,668.142c8.452,8.919,16.904,17.838,25.356,26.756c5.333,5.627,13.804-2.873,8.485-8.484
				c-8.452-8.919-16.904-17.838-25.356-26.756C-177.72,654.03-186.191,662.53-180.873,668.142L-180.873,668.142z"/>
		</g>
	</g>
	<g>
		<g>
			<path style="fill:#000000;" d="M-147.422,716.568c-5.493-6.202-4.941-14.927,0.787-20.733c5.814-5.893,15.225-4.648,20.733,0.785
				c5.892,5.813,4.646,15.226-0.786,20.732C-132.503,723.247-141.912,722.002-147.422,716.568
				c-5.513-5.437-14.001,3.045-8.485,8.484c10.636,10.488,26.621,10.605,37.705,0.784c11.17-9.896,10.101-27.183,0.786-37.701
				c-9.895-11.175-27.188-10.102-37.704-0.785c-11.172,9.896-10.104,27.185-0.787,37.702
				C-150.766,730.857-142.311,722.338-147.422,716.568z"/>
		</g>
	</g>
</g>
<g>
	<g>
		<g>
			<path style="fill:#000000;" d="M-121.028,465.598c9.885-2.857,19.771-5.715,29.656-8.572c7.419-2.146,4.261-13.726-3.19-11.572
				c-9.885,2.857-19.771,5.715-29.656,8.572C-131.638,456.171-128.479,467.751-121.028,465.598L-121.028,465.598z"/>
		</g>
	</g>
	<g>
		<g>
			<path style="fill:#000000;" d="M-49.167,457.094c-14.714-3.637-29.429-7.273-44.143-10.91c0.882,3.343,1.765,6.686,2.647,10.028
				c10.506-10.923,21.012-21.846,31.518-32.77c-3.343-0.882-6.686-1.765-10.028-2.647c4.208,14.561,8.417,29.12,12.625,43.68
				c2.145,7.42,13.725,4.261,11.571-3.189c-4.208-14.561-8.417-29.12-12.625-43.68c-1.23-4.258-6.85-5.952-10.028-2.647
				c-10.506,10.923-21.012,21.846-31.518,32.77c-3.048,3.169-1.833,8.92,2.647,10.028c14.714,3.637,29.429,7.273,44.143,10.91
				C-44.844,470.522-41.658,458.95-49.167,457.094z"/>
		</g>
	</g>
</g>
<g>
	<g>
		<g>
			<path style="fill:#000000;" d="M-117.568,522.401c12.283,0.33,24.566,0.66,36.849,0.99c7.743,0.208,7.723-11.793,0-12
				c-12.283-0.33-24.566-0.66-36.849-0.99C-125.311,510.193-125.291,522.194-117.568,522.401L-117.568,522.401z"/>
		</g>
	</g>
	<g>
		<g>
			<path style="fill:#000000;" d="M-59.672,532.99c-8.259-0.489-14.059-7.075-14.104-15.216c-0.045-8.27,7.479-14.063,15.217-14.106
				c8.267-0.046,14.061,7.482,14.103,15.216C-44.412,527.154-51.933,532.946-59.672,532.99c-7.736,0.044-7.74,12.044,0,12
				c14.925-0.084,26.344-11.333,27.216-26.106c0.879-14.889-12.057-26.382-26.103-27.216c-14.89-0.884-26.384,12.063-27.217,26.106
				c-0.882,14.889,12.059,26.385,26.104,27.216C-51.939,545.448-51.983,533.445-59.672,532.99z"/>
		</g>
	</g>
</g>
<g>
	<g>
		<g>
			<path style="fill:#000000;" d="M-218.511,336.93c4.97-9.011,9.939-18.021,14.909-27.031c3.74-6.78-6.624-12.833-10.361-6.057
				c-4.97,9.011-9.939,18.021-14.909,27.031C-232.612,337.653-222.249,343.706-218.511,336.93L-218.511,336.93z"/>
		</g>
	</g>
	<g>
		<g>
			<path style="fill:#000000;" d="M-173.736,280.076c-12.976,7.833-25.952,15.666-38.928,23.499
				c3.009,1.727,6.019,3.454,9.028,5.181c-0.295-15.152-0.591-30.306-0.887-45.458c-3.009,1.727-6.019,3.454-9.028,5.181
				c13.271,7.32,26.543,14.64,39.814,21.959c6.78,3.739,12.833-6.624,6.057-10.361c-13.271-7.32-26.543-14.64-39.814-21.959
				c-3.895-2.148-9.119,0.521-9.028,5.181c0.295,15.152,0.591,30.306,0.887,45.458c0.087,4.47,5.056,7.579,9.028,5.181
				c12.976-7.833,25.952-15.666,38.928-23.499C-161.065,286.445-167.093,276.066-173.736,280.076z"/>
		</g>
	</g>
</g>
<g>
	<g>
		<g>
			<path style="fill:#000000;" d="M-175.858,374.583c8.918-8.451,17.837-16.903,26.756-25.355c5.627-5.332-2.873-13.804-8.485-8.484
				c-8.918,8.451-17.837,16.903-26.756,25.355C-189.971,371.431-181.471,379.902-175.858,374.583L-175.858,374.583z"/>
		</g>
	</g>
	<g>
		<g>
			<path style="fill:#000000;" d="M-127.433,341.134c-6.202,5.492-14.925,4.94-20.731-0.787c-5.894-5.815-4.649-15.226,0.785-20.735
				c5.813-5.893,15.226-4.644,20.73,0.788C-120.754,326.216-121.998,335.622-127.433,341.134c-5.436,5.512,3.045,14.001,8.485,8.484
				c10.488-10.635,10.605-26.62,0.784-37.703c-9.897-11.17-27.182-10.105-37.701-0.788c-11.174,9.896-10.102,27.188-0.785,37.704
				c9.896,11.173,27.184,10.104,37.702,0.787C-113.143,344.479-121.663,336.022-127.433,341.134z"/>
		</g>
	</g>
</g>
<g>
	<path style="fill:#000000;" d="M41.958,47.331l-2.412-1.974c-2.454,2.997-4.467,6.314-5.984,9.86l2.866,1.227
		C37.83,53.167,39.69,50.101,41.958,47.331z"/>
	<path style="fill:#000000;" d="M53.441,37.873l-1.474-2.748c-3.398,1.824-6.527,4.119-9.297,6.822l2.177,2.232
		C47.408,41.68,50.3,39.558,53.441,37.873z"/>
	<path style="fill:#000000;" d="M67.667,33.564l-0.297-3.103c-3.853,0.368-7.624,1.28-11.212,2.711l1.155,2.896
		C60.626,34.747,64.11,33.904,67.667,33.564z"/>
	<path style="fill:#000000;" d="M83.381,32.083c-3.682-1.135-7.513-1.742-11.391-1.805l-0.051,3.117
		c3.583,0.058,7.124,0.619,10.523,1.667L83.381,32.083z"/>
	<path style="fill:#000000;" d="M97.531,39.761c-2.978-2.478-6.278-4.518-9.81-6.064l-1.25,2.856
		c3.264,1.429,6.314,3.314,9.066,5.605L97.531,39.761z"/>
	<path style="fill:#000000;" d="M45.62,103.294c3.018,2.429,6.351,4.415,9.909,5.902l1.203-2.876
		c-3.287-1.375-6.367-3.209-9.157-5.454L45.62,103.294z"/>
	<path style="fill:#000000;" d="M88.629,105.044l1.429,2.772c3.428-1.768,6.593-4.011,9.408-6.668l-2.141-2.267
		C94.724,101.338,91.798,103.412,88.629,105.044z"/>
	<path style="fill:#000000;" d="M100.266,95.776l2.38,2.013c2.502-2.956,4.57-6.239,6.146-9.759l-2.846-1.273
		C104.49,90.009,102.579,93.044,100.266,95.776z"/>
	<path style="fill:#000000;" d="M74.332,109.116l0.246,3.108c3.859-0.304,7.646-1.153,11.254-2.523l-1.105-2.915
		C81.393,108.051,77.896,108.833,74.332,109.116z"/>
	<path style="fill:#000000;" d="M98.665,45.073c2.478,2.582,4.576,5.49,6.235,8.645l2.759-1.451
		c-1.795-3.414-4.065-6.56-6.746-9.353L98.665,45.073z"/>
	<path style="fill:#000000;" d="M59.754,110.736c3.697,1.073,8.278,1.618,11.278,1.618v-3.119c-3,0-7.064-0.502-10.479-1.492
		L59.754,110.736z"/>
	<path style="fill:#000000;" d="M107.47,82.762l2.972,0.942c1.165-3.672,1.804-7.5,1.899-11.375l-3.117-0.076
		C109.136,75.835,108.546,79.37,107.47,82.762z"/>
	<path style="fill:#000000;" d="M109.09,67.979l3.105-0.271c-0.337-3.856-1.218-7.636-2.618-11.234l-2.906,1.131
		C107.965,60.927,108.778,64.418,109.09,67.979z"/>
	<path style="fill:#000000;" d="M34.971,60.462l-2.987-0.893c-1.103,3.688-1.679,7.525-1.71,11.404l3.117,0.025
		C33.42,67.414,33.952,63.869,34.971,60.462z"/>
	<path style="fill:#000000;" d="M33.596,75.27l-3.102,0.323c0.4,3.848,1.344,7.612,2.804,11.188l2.886-1.179
		C34.836,82.299,33.965,78.823,33.596,75.27z"/>
	<path style="fill:#000000;" d="M35.287,90.956c1.852,3.383,4.173,6.493,6.898,9.241l2.214-2.195
		c-2.521-2.541-4.666-5.416-6.377-8.543L35.287,90.956z"/>
	<path style="fill:#000000;" d="M56.09,60.288c0.907-0.764,1.368-1.058,1.487-1.13l-2.29-3.82c-0.676,0.406-1.498,1.064-2.069,1.545
		L56.09,60.288z"/>
	<path style="fill:#000000;" d="M61.206,86.684c-1.168,0.935-2.238,1.569-3.179,1.886l1.423,4.221
		c1.434-0.483,2.961-1.367,4.537-2.627L61.206,86.684z"/>
	<path style="fill:#000000;" d="M71.925,73.392l3.86,2.221c0.67-1.165,1.358-2.466,2.163-4.095l-3.993-1.974
		C73.192,71.086,72.547,72.31,71.925,73.392z"/>
	<path style="fill:#000000;" d="M92.636,60.349l4.188-1.515c-0.73-2.019-2.224-3.601-4.207-4.455l-1.763,4.09
		C91.72,58.841,92.319,59.473,92.636,60.349z"/>
	<path style="fill:#000000;" d="M63.179,69.051c-0.365,0.327-0.729,0.652-1.088,0.978l2.985,3.305
		c0.355-0.322,0.714-0.643,1.075-0.965c0.749-0.671,1.522-1.364,2.278-2.066L65.4,67.038C64.672,67.713,63.913,68.394,63.179,69.051
		z"/>
	<path style="fill:#000000;" d="M83.032,61.904l-3.644-2.562c-0.786,1.119-1.562,2.426-2.441,4.113l3.951,2.058
		C81.682,64.004,82.361,62.857,83.032,61.904z"/>
	<path style="fill:#000000;" d="M79.071,69.206c0.457-0.949,0.89-1.845,1.331-2.723l-3.98-1.998
		c-0.457,0.91-0.917,1.864-1.362,2.787c-0.204,0.424-0.41,0.849-0.617,1.277l4.006,1.947C78.658,70.063,78.865,69.633,79.071,69.206
		z"/>
	<path style="fill:#000000;" d="M73.004,51.129c0.341,0.326,0.794,0.895,0.794,2.074c0,0.092-0.002,0.184-0.008,0.277l4.447,0.245
		c0.01-0.175,0.015-0.349,0.015-0.522c0-2.106-0.75-3.937-2.169-5.294L73.004,51.129z"/>
	<path style="fill:#000000;" d="M66.193,66.292l3.079,3.218c1.328-1.272,2.364-2.371,3.258-3.459l-3.441-2.828
		C68.311,64.171,67.39,65.146,66.193,66.292z"/>
	<path style="fill:#000000;" d="M70.732,60.9l-0.113,0.19c-0.264,0.437-0.568,0.884-0.902,1.332l3.57,2.664
		c0.419-0.562,0.802-1.13,1.151-1.704l0.121-0.203c0.357-0.601,0.801-1.348,1.256-2.189l-3.919-2.115
		C71.486,59.633,71.068,60.336,70.732,60.9z"/>
	<path style="fill:#000000;" d="M76.369,59.919c0.873-1.771,1.429-3.34,1.698-4.798l-4.38-0.81
		c-0.191,1.035-0.633,2.258-1.313,3.637L76.369,59.919z"/>
	<path style="fill:#000000;" d="M55.054,88.05l-3.049,3.247c1.38,1.295,2.993,1.953,4.792,1.953c0.396,0,0.802-0.034,1.209-0.099
		l-0.708-4.397C56.417,88.896,55.729,88.685,55.054,88.05z"/>
	<path style="fill:#000000;" d="M80.139,58.337l3.485,2.774c0.871-1.095,1.739-1.863,2.654-2.349l-2.087-3.934
		C82.725,55.606,81.399,56.753,80.139,58.337z"/>
	<path style="fill:#000000;" d="M81.745,91.404l3.201,3.097c1.081-1.115,2.111-2.381,3.063-3.759l-3.664-2.532
		C83.531,89.389,82.656,90.463,81.745,91.404z"/>
	<path style="fill:#000000;" d="M70.899,50.048L70.899,50.048c0.235,0,0.467,0.088,0.711,0.188c0.319,0.13,0.606,0.317,0.852,0.474
		l2.393-3.776c-0.47-0.299-0.993-0.703-1.557-0.933c-0.779-0.319-1.585-0.635-2.397-0.635c0,0-0.001,0-0.002,0
		c-0.757,0-1.522,0.275-2.273,0.554l1.549,4.254C70.431,50.077,70.667,50.048,70.899,50.048z"/>
	<path style="fill:#000000;" d="M88.553,58.121c0.563-0.04,1.109,0.001,1.606,0.12l1.026-4.335c-0.933-0.22-1.931-0.298-2.938-0.228
		c-0.95,0.065-1.874,0.257-2.744,0.57l1.508,4.191C87.5,58.262,88.005,58.159,88.553,58.121z"/>
	<path style="fill:#000000;" d="M67.316,93.708l4.43,0.456c0.094-0.914,0.568-1.999,1.302-2.979l-3.566-2.667
		C68.262,90.146,67.493,91.99,67.316,93.708z"/>
	<path style="fill:#000000;" d="M71.748,94.767l-4.417,0.577c0.334,2.557,2.141,4.347,4.833,4.789l0.722-4.394
		C71.932,95.58,71.803,95.188,71.748,94.767z"/>
	<path style="fill:#000000;" d="M97.356,62.036c0-0.602-0.05-1.189-0.147-1.747l-4.387,0.77c0.053,0.303,0.08,0.632,0.08,0.977
		c0,0.749-0.125,1.584-0.375,2.483l4.293,1.187C97.176,64.42,97.356,63.186,97.356,62.036z"/>
	<path style="fill:#000000;" d="M77.013,94.926c-1.103,0.521-2.182,0.817-3.12,0.858c-0.089,0.005-0.175,0.006-0.259,0.006
		l0.017,4.455c0.14,0,0.284-0.005,0.434-0.011c1.548-0.066,3.173-0.498,4.829-1.28L77.013,94.926z"/>
	<path style="fill:#000000;" d="M76.631,87.519l-2.92-3.363c-1.154,1.002-2.222,2.055-3.268,3.22
		c-0.032,0.034-0.063,0.067-0.094,0.101l3.27,3.023l0.121-0.129C74.665,89.337,75.611,88.404,76.631,87.519z"/>
	<path style="fill:#000000;" d="M46.573,73.984l2.547-3.654c-0.192-0.134-0.251-0.219-0.251-0.494c0-0.181,0.036-0.497,0.206-0.979
		l-4.202-1.478c-0.304,0.862-0.458,1.689-0.458,2.457C44.415,71.541,45.181,73.014,46.573,73.984z"/>
	<path style="fill:#000000;" d="M84.07,95.364l-3.048-3.247c-1.027,0.963-2.091,1.761-3.163,2.37l2.199,3.873
		C81.437,97.577,82.787,96.57,84.07,95.364z"/>
	<path style="fill:#000000;" d="M80.886,84.339l-2.461-3.712c-1.021,0.677-2.375,1.603-3.801,2.763l2.81,3.456
		C78.71,85.806,79.949,84.959,80.886,84.339z"/>
	<path style="fill:#000000;" d="M73.837,78.696l0.189-0.276c0.384-0.559,0.774-1.163,1.159-1.793l-3.804-2.317
		c-0.342,0.562-0.687,1.095-1.025,1.588l-0.194,0.283c-0.3,0.437-0.708,1.034-1.202,1.728l3.63,2.581
		C73.107,79.763,73.529,79.146,73.837,78.696z"/>
	<path style="fill:#000000;" d="M71.916,81.426l-3.595-2.629c-0.908,1.24-1.807,2.391-2.674,3.421l3.405,2.87
		C69.985,83.981,70.949,82.749,71.916,81.426z"/>
	<path style="fill:#000000;" d="M62.474,75.783l0.019-0.019c0.503-0.503,1.081-1.056,1.768-1.688l-3.016-3.278
		c-0.73,0.672-1.35,1.265-1.896,1.812c-0.379,0.37-0.888,0.814-1.337,1.2l2.905,3.376C61.424,76.75,62.004,76.244,62.474,75.783z"/>
	<path style="fill:#000000;" d="M68.285,85.978l-3.341-2.946c-1.025,1.163-2.021,2.171-2.959,2.998l2.943,3.342
		C66.007,88.422,67.136,87.28,68.285,85.978z"/>
	<path style="fill:#000000;" d="M94.964,70.261c0.604-1.147,1.1-2.271,1.476-3.341l-4.203-1.474
		c-0.303,0.864-0.711,1.785-1.213,2.739c-0.173,0.329-0.349,0.653-0.524,0.961l3.878,2.192
		C94.573,70.99,94.771,70.627,94.964,70.261z"/>
	<path style="fill:#000000;" d="M82.429,83.333c1.049-0.679,2.134-1.379,3.196-2.143l-2.6-3.616
		c-0.972,0.698-1.964,1.34-3.014,2.019l-0.63,0.408l2.424,3.736L82.429,83.333z"/>
	<path style="fill:#000000;" d="M93.776,72.364l-3.808-2.31c-0.763,1.257-1.547,2.36-2.397,3.371l3.409,2.867
		C91.979,75.104,92.894,73.819,93.776,72.364z"/>
	<path style="fill:#000000;" d="M86.897,74.193c-0.899,0.978-1.89,1.879-3.029,2.756l2.716,3.53
		c1.343-1.034,2.519-2.104,3.592-3.271L86.897,74.193z"/>
	<path style="fill:#000000;" d="M59.231,57.828l-0.064,0.143c-0.313,0.691-0.742,1.64-1.274,2.736l4.007,1.944
		c0.558-1.149,1.001-2.129,1.325-2.843l0.064-0.141c0.15-0.333,0.322-0.706,0.514-1.106l-4.019-1.92
		C59.578,57.07,59.393,57.47,59.231,57.828z"/>
	<path style="fill:#000000;" d="M60.056,77.922l-2.89-3.388c-1.19,1.016-2.351,2.017-3.459,3.103l3.116,3.182
		C57.914,79.75,59.152,78.693,60.056,77.922z"/>
	<path style="fill:#000000;" d="M55.327,65.46l3.798,2.326c0.739-1.208,1.5-2.586,2.26-4.097l-3.977-2.004
		C56.703,63.086,56.002,64.357,55.327,65.46z"/>
	<path style="fill:#000000;" d="M60.301,55.587l3.975,2.008c0.7-1.385,1.409-2.61,2.108-3.641l-3.686-2.5
		C61.893,52.642,61.086,54.032,60.301,55.587z"/>
	<path style="fill:#000000;" d="M63.414,50.452l3.56,2.676c0.901-1.2,1.769-2.058,2.579-2.55l-2.316-3.805
		C65.942,47.561,64.655,48.799,63.414,50.452z"/>
	<path style="fill:#000000;" d="M48.977,61.038l3.338,2.949c1.144-1.295,2.254-2.351,2.983-3.008l-2.981-3.309
		C51.501,58.405,50.26,59.586,48.977,61.038z"/>
	<path style="fill:#000000;" d="M52.285,69.499l3.115,3.184c1.004-0.984,2.044-2.292,3.09-3.891l-3.728-2.438
		C53.893,67.683,53.06,68.741,52.285,69.499z"/>
	<path style="fill:#000000;" d="M51.018,90.205l3.521-2.729c-0.27-0.347-0.532-0.764-0.779-1.241
		c-0.097-0.188-0.143-0.375-0.143-0.587c0-0.134,0.019-0.281,0.054-0.438l-4.343-0.991c-0.109,0.481-0.165,0.961-0.166,1.428
		c0,0.928,0.217,1.816,0.644,2.639C50.177,89.001,50.585,89.646,51.018,90.205z"/>
	<path style="fill:#000000;" d="M52.859,78.498c-1.449,1.53-2.441,2.921-3.033,4.254l4.07,1.808c0.377-0.85,1.117-1.859,2.197-2.999
		L52.859,78.498z"/>
	<path style="fill:#000000;" d="M49.119,75.074l0.057,0.013c0.352,0.076,0.712,0.113,1.071,0.113c1.372,0,2.76-0.543,4.126-1.615
		l-2.748-3.505c-0.739,0.579-1.181,0.667-1.379,0.667c-0.04,0-0.077-0.003-0.115-0.01c-0.187-0.047-0.358-0.099-0.509-0.155
		l-1.561,4.171C48.39,74.875,48.745,74.983,49.119,75.074z"/>
	<path style="fill:#000000;" d="M45.414,66.102l3.996,1.967c0.477-0.969,1.226-2.074,2.224-3.285l-3.436-2.834
		C46.98,63.426,46.043,64.823,45.414,66.102z"/>
	<path style="fill:#000000;" d="M89.906,87.667l-3.901-2.148c-0.341,0.618-0.698,1.22-1.063,1.792l3.754,2.397
		C89.112,89.055,89.52,88.369,89.906,87.667z"/>
	<path style="fill:#000000;" d="M130.679,65.258c-2.795-0.167-5.052,1.856-5.804,4.369c-1.993-0.054-3.986-0.107-5.979-0.161
		c-0.131-3.48-0.635-6.895-1.493-10.197c1.714-0.495,3.426-0.99,5.14-1.486c3.173,0.784,6.346,1.568,9.519,2.353
		c0.469,0.116,0.862-0.004,1.148-0.245c0.417-0.277,0.677-0.769,0.495-1.399c-0.006-0.022-0.013-0.045-0.02-0.067
		c-0.001-0.003-0.001-0.006-0.002-0.008c-0.93-3.217-1.86-6.434-2.79-9.651c-0.274-0.948-1.525-1.326-2.232-0.589
		c-2.247,2.334-4.492,4.67-6.738,7.005c-1.754,0.507-3.509,1.014-5.263,1.521c-2.201-6.857-5.959-13.158-11.095-18.471
		c1.395-1.322,2.79-2.643,4.183-3.965c2.172,1.529,5.232,1.194,7.281-0.47c0.069-0.049,0.137-0.104,0.204-0.172
		c0.07-0.062,0.128-0.126,0.181-0.192c2.153-2.366,2.123-5.802-0.006-8.205c-2.205-2.487-6.053-2.25-8.396-0.175
		c-2.097,1.856-2.257,4.883-1.014,7.191c-1.448,1.372-2.896,2.745-4.343,4.116c-2.555-2.368-5.326-4.427-8.267-6.156
		c0.861-1.561,1.722-3.122,2.583-4.683c2.804-1.692,5.607-3.384,8.41-5.077c0.417-0.251,0.608-0.617,0.635-0.992
		c0.096-0.484-0.069-1.003-0.635-1.315c-2.956-1.63-5.911-3.26-8.867-4.89c-0.867-0.479-2.031,0.116-2.01,1.154
		c0.063,3.24,0.126,6.479,0.189,9.718c-0.881,1.598-1.764,3.197-2.645,4.796c-6.405-3.292-13.519-5.09-20.907-5.215
		c0.052-1.921,0.104-3.842,0.155-5.763c2.621-0.457,4.553-2.858,4.817-5.492c0.014-0.08,0.021-0.164,0.021-0.253
		c0.005-0.089,0.001-0.172-0.007-0.251c-0.14-3.201-2.601-5.62-5.807-5.811c-3.316-0.196-5.876,2.687-6.061,5.813
		c-0.166,2.795,1.856,5.053,4.369,5.804c-0.054,1.994-0.108,3.987-0.161,5.98c-3.508,0.135-6.92,0.648-10.195,1.504
		c-0.496-1.718-0.992-3.435-1.489-5.152c0.784-3.172,1.568-6.345,2.352-9.518c0.116-0.468-0.003-0.862-0.243-1.148
		c-0.278-0.418-0.77-0.678-1.4-0.496c-0.023,0.007-0.046,0.013-0.069,0.02l0,0c-3.219,0.931-6.439,1.861-9.658,2.792
		c-0.948,0.274-1.326,1.525-0.59,2.233c2.334,2.246,4.67,4.491,7.005,6.737c0.509,1.761,1.018,3.522,1.527,5.283
		c-6.998,2.26-13.291,6.097-18.461,11.092c-1.327-1.4-2.653-2.8-3.979-4.2c1.529-2.171,1.194-5.231-0.47-7.28
		c-0.049-0.069-0.104-0.138-0.172-0.204c-0.062-0.069-0.126-0.128-0.191-0.18c-2.366-2.155-5.802-2.124-8.206,0.005
		c-2.488,2.204-2.249,6.054-0.175,8.396c1.857,2.097,4.884,2.257,7.192,1.014c1.376,1.453,2.754,2.906,4.131,4.359
		c-2.333,2.519-4.396,5.289-6.145,8.265c-1.57-0.865-3.14-1.731-4.709-2.597c-1.692-2.804-3.384-5.606-5.077-8.409
		c-0.251-0.417-0.617-0.608-0.992-0.634c-0.484-0.096-1.003,0.068-1.315,0.634c-1.63,2.955-3.26,5.91-4.89,8.866
		c-0.479,0.867,0.116,2.031,1.154,2.01c3.24-0.063,6.479-0.125,9.718-0.189c1.606,0.886,3.213,1.772,4.82,2.658
		c-3.235,6.287-5.11,13.381-5.238,20.895c-1.922-0.052-3.842-0.104-5.764-0.155c-0.456-2.621-2.858-4.553-5.49-4.817
		c-0.081-0.014-0.165-0.022-0.254-0.021c-0.089-0.005-0.172-0.001-0.252,0.007c-3.199,0.141-5.619,2.601-5.809,5.807
		c-0.196,3.315,2.686,5.875,5.813,6.061c2.794,0.166,5.052-1.856,5.804-4.369c1.993,0.054,3.986,0.107,5.98,0.161
		c0.135,3.508,0.648,6.92,1.504,10.195c-1.717,0.496-3.434,0.992-5.151,1.488c-3.173-0.783-6.346-1.567-9.518-2.352
		c-0.469-0.117-0.862,0.003-1.148,0.243c-0.418,0.278-0.632,0.77-0.45,1.4c0.007,0.023,0.065,0.046,0.065,0.069c0,0,0,0,0,0.001
		c1,3.219,1.815,6.438,2.746,9.657c0.273,0.947,1.502,1.324,2.21,0.589c2.246-2.335,4.48-4.671,6.726-7.006
		c1.761-0.509,3.516-1.018,5.277-1.527c2.26,6.998,6.094,13.291,11.089,18.461c-1.399,1.326-2.801,2.653-4.201,3.979
		c-2.172-1.529-5.232-1.194-7.281,0.47c-0.07,0.048-0.138,0.105-0.205,0.171c-0.069,0.062-0.128,0.126-0.181,0.191
		c-2.153,2.367-2.123,5.803,0.006,8.206c2.204,2.487,6.054,2.249,8.396,0.174c2.097-1.856,2.257-4.884,1.014-7.192
		c1.454-1.376,2.907-2.753,4.359-4.131c2.519,2.332,5.289,4.396,8.265,6.146c-0.865,1.57-1.731,3.14-2.597,4.709
		c-2.803,1.691-5.606,3.383-8.409,5.075c-0.417,0.252-0.608,0.618-0.634,0.992c-0.096,0.484,0.068,1.004,0.634,1.316
		c2.955,1.63,5.91,3.26,8.866,4.89c0.867,0.479,2.031-0.116,2.01-1.153c-0.063-3.239-0.125-6.479-0.189-9.72
		c0.886-1.606,1.772-3.212,2.659-4.818c6.286,3.234,13.38,5.108,20.894,5.238c-0.051,1.92-0.104,3.841-0.155,5.763
		c-2.62,0.457-4.552,2.858-4.817,5.49c-0.014,0.081-0.021,0.165-0.021,0.253c-0.005,0.089-0.001,0.173,0.008,0.252
		c0.14,3.2,2.6,5.62,5.806,5.811c3.315,0.195,5.875-2.687,6.061-5.813c0.166-2.796-1.856-5.053-4.369-5.804
		c0.054-1.994,0.107-3.987,0.161-5.979c3.48-0.131,6.895-0.635,10.197-1.492c0.495,1.712,0.99,3.426,1.486,5.139
		c-0.785,3.173-1.568,6.346-2.353,9.519c-0.116,0.469,0.004,0.861,0.244,1.148c0.278,0.418,0.77,0.676,1.4,0.494
		c3.242-0.936,6.484-1.874,9.727-2.81c0.948-0.274,1.326-1.525,0.589-2.233c-2.334-2.247-4.67-4.493-7.005-6.737
		c-0.507-1.755-1.014-3.51-1.521-5.264c6.857-2.202,13.158-5.959,18.471-11.096c1.322,1.396,2.643,2.79,3.965,4.185
		c-1.529,2.17-1.194,5.232,0.47,7.28c0.049,0.07,0.105,0.138,0.172,0.203c0.062,0.07,0.126,0.128,0.192,0.181
		c2.365,2.154,5.802,2.123,8.205-0.006c2.488-2.204,2.249-6.053,0.175-8.396c-1.856-2.097-4.884-2.257-7.191-1.014
		c-1.373-1.448-2.744-2.894-4.116-4.342c2.368-2.555,4.426-5.326,6.156-8.267c1.561,0.862,3.122,1.722,4.683,2.583
		c1.692,2.802,3.384,5.606,5.077,8.408c0.251,0.417,0.617,0.608,0.992,0.635c0.484,0.095,1.003-0.07,1.315-0.635
		c1.63-2.955,3.26-5.91,4.89-8.866c0.479-0.866-0.116-2.031-1.154-2.01c-3.239,0.063-6.479,0.126-9.718,0.188
		c-1.599-0.881-3.197-1.763-4.796-2.646c3.292-6.404,5.09-13.518,5.215-20.906c1.921,0.052,3.842,0.104,5.763,0.155
		c0.457,2.62,2.858,4.553,5.491,4.817c0.08,0.014,0.164,0.021,0.253,0.021c0.089,0.005,0.172,0.001,0.252-0.007
		c3.2-0.14,5.619-2.6,5.809-5.806C136.688,68.003,133.807,65.443,130.679,65.258z M125.152,55.676
		c1.27-1.321,2.54-2.642,3.811-3.962c0.508,1.761,1.017,3.521,1.526,5.281C128.71,56.556,126.931,56.115,125.152,55.676z
		 M98.219,16.689c1.605,0.886,3.209,1.771,4.814,2.655c-1.569,0.947-3.138,1.895-4.707,2.842
		C98.29,20.354,98.254,18.521,98.219,16.689z M55.676,17.473c-1.321-1.271-2.642-2.54-3.962-3.811
		c1.761-0.508,3.521-1.017,5.281-1.526C56.556,13.916,56.116,15.694,55.676,17.473z M19.344,39.593
		c0.947,1.569,1.895,3.138,2.842,4.707c-1.832,0.035-3.665,0.071-5.497,0.107C17.575,42.802,18.459,41.197,19.344,39.593z
		 M17.473,86.949c-1.27,1.321-2.54,2.642-3.811,3.962c-0.508-1.761-1.017-3.521-1.526-5.281
		C13.916,86.07,15.694,86.51,17.473,86.949z M44.407,125.937c-1.604-0.886-3.209-1.771-4.814-2.655
		c1.569-0.947,3.138-1.895,4.707-2.842C44.335,122.272,44.371,124.104,44.407,125.937z M86.949,125.152
		c1.321,1.271,2.642,2.539,3.962,3.81c-1.761,0.508-3.521,1.019-5.281,1.527C86.07,128.71,86.51,126.931,86.949,125.152z
		 M123.282,103.033c-0.947-1.57-1.895-3.138-2.842-4.706c1.832-0.037,3.665-0.071,5.497-0.108
		C125.051,99.824,124.167,101.428,123.282,103.033z M110.9,26.942c1.294-1.312,3.39-1.033,4.617,0.176
		c1.313,1.295,1.035,3.39-0.175,4.617c-1.381,1.223-3.324,1.1-4.617-0.176C109.413,30.265,109.69,28.169,110.9,26.942z
		 M67.931,11.946c-0.01-1.841,1.665-3.131,3.388-3.141c1.842-0.009,3.132,1.666,3.141,3.389c-0.109,1.839-1.576,3.131-3.389,3.141
		C69.23,15.345,67.94,13.67,67.931,11.946z M26.943,31.726c-1.313-1.295-1.035-3.39,0.175-4.617c1.295-1.313,3.39-1.035,4.616,0.175
		c1.224,1.381,1.101,3.324-0.175,4.617C30.265,33.214,28.17,32.936,26.943,31.726z M11.947,74.694
		c-1.841,0.01-3.132-1.665-3.141-3.388c-0.01-1.841,1.665-3.132,3.388-3.141c1.839,0.109,3.131,1.576,3.141,3.389
		C15.345,73.396,13.67,74.686,11.947,74.694z M31.727,115.683c-1.295,1.312-3.391,1.034-4.617-0.176
		c-1.313-1.294-1.036-3.39,0.174-4.618c1.381-1.223,3.324-1.099,4.617,0.176C33.214,112.36,32.937,114.456,31.727,115.683z
		 M74.695,130.679c0.009,1.84-1.666,3.131-3.389,3.141c-1.841,0.009-3.131-1.667-3.142-3.39c0.109-1.839,1.576-3.13,3.389-3.139
		C73.396,127.28,74.686,128.956,74.695,130.679z M115.683,110.899c1.312,1.294,1.034,3.39-0.175,4.618
		c-1.295,1.312-3.391,1.034-4.618-0.176c-1.223-1.381-1.1-3.323,0.176-4.616C112.36,109.412,114.456,109.689,115.683,110.899z
		 M71.313,114.479c-23.803,0-43.167-19.363-43.167-43.167c0-23.802,19.364-43.167,43.167-43.167
		c23.802,0,43.167,19.365,43.167,43.167C114.48,95.116,95.115,114.479,71.313,114.479z M130.431,74.46
		c-1.839-0.108-3.131-1.575-3.141-3.388c-0.009-1.842,1.666-3.132,3.389-3.141c1.84-0.011,3.131,1.666,3.14,3.388
		C133.83,73.161,132.155,74.45,130.431,74.46z"/>
</g>
</svg>
