<?xml version="1.0" encoding="iso-8859-1"?>
<!-- Generator: Adobe Illustrator 19.0.0, SVG Export Plug-In . SVG Version: 6.00 Build 0)  -->
<svg version="1.1" id="Capa_1" xmlns="http://www.w3.org/2000/svg" xmlns:xlink="http://www.w3.org/1999/xlink" x="0px" y="0px"
	 viewBox="0 0 512 512" style="enable-background:new 0 0 512 512;" xml:space="preserve">
<g>
	<g>
		<path d="M285,0c-8.291,0-15,6.709-15,15v211c0,8.291,6.709,15,15,15h212c8.291,0,15-6.709,15-15C512,101.928,409.072,0,285,0z"/>
	</g>
</g>
<g>
	<g>
		<path d="M225,61C100.928,61,0,161.928,0,286c0,56.646,21.2,108.322,55.873,147.916L240,249.789V76C240,67.709,233.291,61,225,61z"
			/>
	</g>
</g>
<g>
	<g>
		<path d="M432.964,271H261.211L77.084,455.127C116.678,489.8,168.354,512,225,512c124.072,0,225-101.928,225-226
			C450,277.887,443.593,271,432.964,271z"/>
	</g>
</g>
<g>
</g>
<g>
</g>
<g>
</g>
<g>
</g>
<g>
</g>
<g>
</g>
<g>
</g>
<g>
</g>
<g>
</g>
<g>
</g>
<g>
</g>
<g>
</g>
<g>
</g>
<g>
</g>
<g>
</g>
</svg>
