<?xml version="1.0" encoding="iso-8859-1"?>
<!-- Generator: Adobe Illustrator 19.0.0, SVG Export Plug-In . SVG Version: 6.00 Build 0)  -->
<svg version="1.1" id="Capa_1" xmlns="http://www.w3.org/2000/svg" xmlns:xlink="http://www.w3.org/1999/xlink" x="0px" y="0px"
	 viewBox="0 0 512 512" style="enable-background:new 0 0 512 512;" xml:space="preserve">
<g>
	<g>
		<path d="M290.999,28.139C287.298,11.309,273.232,0,256,0s-31.298,11.309-34.999,28.139l-18.98,86.315
			c16.777-6.42,34.972-9.948,53.979-9.948s37.202,3.528,53.979,9.948L290.999,28.139z"/>
	</g>
</g>
<g>
	<g>
		<path d="M256,407.494c-19.007,0-37.202-3.528-53.979-9.948l18.98,86.315C224.702,500.691,238.768,512,256,512
			s31.298-11.309,34.999-28.139l18.98-86.315C293.202,403.966,275.007,407.494,256,407.494z"/>
	</g>
</g>
<g>
	<g>
		<path d="M483.861,221.001l-86.315-18.98c6.419,16.777,9.948,34.972,9.948,53.979c0,19.007-3.528,37.202-9.948,53.979l86.315-18.98
			C500.691,287.298,512,273.232,512,256S500.691,224.702,483.861,221.001z"/>
	</g>
</g>
<g>
	<g>
		<path d="M114.454,202.021l-86.315,18.98C11.309,224.702,0,238.768,0,256s11.309,31.298,28.139,34.999l86.315,18.98
			c-6.42-16.777-9.948-34.972-9.948-53.979C104.506,236.993,108.034,218.798,114.454,202.021z"/>
	</g>
</g>
<g>
	<g>
		<path d="M441.871,392.373l-47.616-74.458c-15.216,33.841-42.499,61.124-76.339,76.339l74.458,47.616
			c6.114,3.91,12.833,5.827,19.477,5.827c9.13,0,18.115-3.625,25.169-10.678C449.205,424.833,451.155,406.892,441.871,392.373z"/>
	</g>
</g>
<g>
	<g>
		<path d="M119.626,70.131c-14.519-9.285-32.46-7.336-44.645,4.85c-12.186,12.186-14.136,30.127-4.852,44.646l47.616,74.458
			c15.215-33.841,42.499-61.124,76.339-76.339L119.626,70.131z"/>
	</g>
</g>
<g>
	<g>
		<path d="M437.018,74.98c-12.186-12.184-30.125-14.134-44.645-4.85l-74.458,47.615c33.841,15.216,61.125,42.499,76.339,76.339
			l47.616-74.458C451.154,105.107,449.204,87.166,437.018,74.98z"/>
	</g>
</g>
<g>
	<g>
		<path d="M117.746,317.916L70.13,392.374c-9.284,14.519-7.334,32.46,4.851,44.646c7.055,7.054,16.038,10.678,25.169,10.678
			c6.643,0,13.363-1.918,19.477-5.827l74.458-47.616C160.244,379.039,132.961,351.756,117.746,317.916z"/>
	</g>
</g>
<g>
	<g>
		<path d="M256,134.506c-66.992,0-121.494,54.502-121.494,121.494S189.008,377.494,256,377.494S377.494,322.992,377.494,256
			S322.992,134.506,256,134.506z"/>
	</g>
</g>
<g>
</g>
<g>
</g>
<g>
</g>
<g>
</g>
<g>
</g>
<g>
</g>
<g>
</g>
<g>
</g>
<g>
</g>
<g>
</g>
<g>
</g>
<g>
</g>
<g>
</g>
<g>
</g>
<g>
</g>
</svg>
