<?xml version="1.0" encoding="iso-8859-1"?>
<!-- Generator: Adobe Illustrator 19.0.0, SVG Export Plug-In . SVG Version: 6.00 Build 0)  -->
<svg version="1.1" id="Capa_1" xmlns="http://www.w3.org/2000/svg" xmlns:xlink="http://www.w3.org/1999/xlink" x="0px" y="0px"
	 viewBox="0 0 512 512" style="enable-background:new 0 0 512 512;" xml:space="preserve">
<g>
	<g>
		<path d="M467,211c-19.53,0-36.024,12.578-42.237,30h-65.279c-2.567-17.701-9.417-33.884-19.684-47.589l45.626-45.626
			c19.273,9.087,38.391,4.031,50.881-8.459c17.549-17.549,17.549-46.084,0-63.633s-46.084-17.549-63.633,0
			c-13.79,13.79-16.34,34.186-8.459,50.881L318.589,172.2c-13.705-10.267-29.888-17.117-47.589-19.684V87.237
			C288.422,81.024,301,64.53,301,45c0-24.814-20.186-45-45-45c-24.814,0-45,20.186-45,45c0,19.53,12.578,36.024,30,42.237v65.279
			c-17.701,2.567-33.884,9.417-47.589,19.684l-45.626-45.626c7.881-16.696,5.33-37.092-8.459-50.881
			c-17.549-17.549-46.084-17.549-63.633,0c-17.549,17.549-17.549,46.084,0,63.633c12.49,12.49,31.609,17.546,50.881,8.459
			l45.626,45.626c-10.267,13.705-17.117,29.888-19.684,47.589H87.237C81.024,223.578,64.53,211,45,211c-24.814,0-45,20.186-45,45
			c0,24.814,20.186,45,45,45c19.53,0,36.024-12.578,42.237-30h65.279c2.567,17.701,9.417,33.884,19.684,47.589l-45.626,45.626
			c-16.696-7.879-37.094-5.328-50.881,8.459c-17.549,17.549-17.549,46.084,0,63.633s46.083,17.549,63.633,0
			c13.788-13.788,16.339-34.186,8.459-50.881l45.626-45.626c13.705,10.267,29.888,17.117,47.589,19.684v65.279
			c-17.422,6.213-30,22.707-30,42.237c0,24.814,20.186,45,45,45c24.814,0,45-20.186,45-45c0-19.53-12.578-36.024-30-42.237v-65.279
			c17.701-2.567,33.884-9.417,47.589-19.684l45.626,45.626c-7.879,16.696-5.328,37.094,8.459,50.881
			c17.549,17.549,46.083,17.549,63.633,0c17.549-17.549,17.549-46.084,0-63.633c-13.79-13.79-34.186-16.34-50.881-8.459
			L339.8,318.589c10.267-13.705,17.117-29.888,19.684-47.589h65.279c6.213,17.422,22.707,30,42.237,30c24.814,0,45-20.186,45-45
			C512,231.186,491.814,211,467,211z"/>
	</g>
</g>
<g>
</g>
<g>
</g>
<g>
</g>
<g>
</g>
<g>
</g>
<g>
</g>
<g>
</g>
<g>
</g>
<g>
</g>
<g>
</g>
<g>
</g>
<g>
</g>
<g>
</g>
<g>
</g>
<g>
</g>
</svg>
