<?xml version="1.0" standalone="no"?>
<!DOCTYPE svg PUBLIC "-//W3C//DTD SVG 1.1//EN" "http://www.w3.org/Graphics/SVG/1.1/DTD/svg11.dtd">
<svg xmlns="http://www.w3.org/2000/svg">
<metadata>Copyright (C) 2014 by original authors @ fontello.com</metadata>
<defs>
<font id="cgs" horiz-adv-x="1000" >
<font-face font-family="cgs" font-weight="400" font-stretch="normal" units-per-em="1000" ascent="850" descent="-150" />
<missing-glyph horiz-adv-x="1000" />
<glyph glyph-name="geo" unicode="&#xe800;" d="m573 690l-546-156 0-195c0 0 212-138 231-333l71 75 45 74 39-21 220 79c0 0 14-29 44-55 31-26 63-43 63-43l80 104-23 35c0 0 28 43 58 51 56 13 52-26 119-4l0 209-401 180z m11-95c17 0 33-2 49-5 6-1 11-3 15-4 4-2 7-3 12-4 2 0 7-1 11-1 15-2 35-4 44-7 7-3 10-8 13-14 3-5 6-9 12-12 9-4 22-5 31-5 3 0 5 0 7 0 2 0 3 0 5 0 0 0 22 0 24-8 1-3 0-6-4-7-2-2-6-3-10-4-5-1-16-4-18-6 0-2 2-6 4-9 2-5 4-9 4-14 0-7-5-14-18-14-2 0-4 0-6 1l-3 0c-9 1-16 2-22 2-5 0-7-2-7-2-2-2-13-18-30-22-9-1-17-2-25-2-6 0-13-1-21-2-18-1-40-10-42-11-3-2-30-15-83-18-7-1-19-3-34-5-26-5-63-12-94-12-7 0-13 1-19 1-9 2-14 3-20 5-6 2-12 5-24 7-23 5-46 8-46 8l-1 0c0 0-5 2-14 2-9 0-24-2-43-8-3-1-7-2-12-2-5 0-9 1-9 1l-1 0-3 1c-5 1-12 2-14 8-2 3 0 7 2 9 5 5 10 9 16 13 11 7 21 14 25 31 2 9 11 18 20 26 4 4 8 8 10 11 2 3 4 5 5 7 5 8 10 15 24 20 7 3 20 7 41 9l0 0c16 2 22 4 36 11 11 4 28 7 44 10 8 1 15 3 20 4 7 2 19 2 35 2 21 1 46 1 68 5 15 2 31 4 46 4z m0-10c-15 0-30-1-44-4-23-4-49-4-69-4-15-1-28-1-34-3-5-1-12-2-20-4-15-2-32-5-42-9-16-7-22-10-39-12l0 0c-20-2-32-5-39-8-10-4-14-9-19-16-1-3-3-5-5-8-3-4-7-8-12-12-7-7-15-15-16-21-5-21-19-30-30-37-5-4-10-7-13-11 1 0 3-1 6-1l1 0 3-2c1 0 4 0 7 0 4 0 7 0 9 1 20 7 36 8 46 8 9 0 15-1 17-1 2-1 24-4 46-8 13-3 19-5 25-7 6-2 10-4 18-5 5-1 12-1 18-1 30 0 66 7 93 11 15 3 27 5 34 6 54 3 79 16 80 16l0 1c1 0 25 10 45 12 8 1 15 1 21 2 8 0 16 0 24 2 11 2 21 13 24 18 0 1 4 5 15 6 6 0 13-1 23-2l4-1c1 0 3 0 4 0 3 0 9 1 9 4 0 2-2 6-4 9-2 5-5 10-5 15 0 8 12 11 23 14-2 0-3 1-5 1-1 0-3 0-5 0-2-1-4-1-7-1-10 0-24 1-35 6-9 4-13 11-16 16-3 5-5 8-9 10-7 3-27 5-41 6-5 1-9 1-12 1-6 1-10 3-14 5-4 1-8 3-13 4-15 3-31 4-47 4z m-32-10c1 0 3 0 4 0 10-1 13-5 13-7 0-2-10-2-10-2 0 0-5-1-14-3-8-2-20-10-27-22-4-7-13-5-15-2-3 4-7 3-10 2-5-1-7-5-7-5 0 0-8-14-14-18-6-4-15 4-15 4-2 5 5 7 5 7 0 0 4 1 7 5 3 4 2 7 4 11 3 4 3 5 11 9 11 6 22 3 26 4 6 2 4 3 10 8 8 7 22 9 32 9z m-55-3c2 0 6 0 3-3-3-3-9-2-19-4-28-6-34-21-73-21-24 1-37-4-51-9-13-4-8-2-13-4-6-2-29-4-40-12-11-9-35-25-32-19 0 0 22 25 28 34 7 8 34 10 40 10 6 1 10 2 18 2 7 1 17 8 42 13 24 5 30 10 44 10 14 0 51 3 51 3 0 0 1 0 2 0z m98 0c1 0 3 0 5-1 10-2 11-6 11-9-2-12-23-16-23-16-16-4-38-4-41-2-4 2-3 3 5 9 8 6 17 7 17 7 7 1 11 2 13 2 18 3 11 7 11 7-2 1-2 3 2 3z m42-2c6-5 35-7 47-7 17 0 23-6 19-8-5-1-57-6-67-8-18-5-9 4-4 8 6 5 5 15 5 15z m-235-33c8-1 3-3-1-5l-5-4-23-17c0 0-39-6-32 2 0 0 23 21 48 23 6 1 10 1 13 1z m-362-16c0 0 26-17 37-24 12-7 68-64 74-67 6-4 35-46 45-62 10-16 79-103 79-103l14-17c14-16 32-120 32-120l-21-38c-3 60-34 132-52 158-25 35-31 26-88 102-40 53-120 105-120 105l0 66z m635-9c2 0 3-1 5-2 0 0 2-7-2-10-5-3-10-3-17-2-7 1-11 2-13 2-2 0-9 1-10 0-6 0-18 5-18 5-3 1-2 1-3 1-1 1-2 4 6 4 8 0 6-1 16 0 11 0 14 0 18-1l4-1c0 0 8 0 10 3 2 1 3 1 4 1z m23-1c4 0 10-1 10-1 1 0 3 0 4 0 1-1 14-2 14-2 0 0 4 1 3-2-1-2-8-1-16-6-8-5-7-8-11-5-3 3-10 13-10 13-3 2 1 3 6 3z m-286-12c3 0 5-1 2-4-3-2-39-20-51-18-13 3-29 14-15 17 13 3 28 1 37 1 10 0 22 2 25 4 1 0 1 0 2 0z m188 0c1 0 2 0 4-1 4-4 9-4 9-4 0 0 6-3 14-5 8-2 2-2-7-3-8 0-13-2-22-3-10-2-36 4-36 4-4 4 15 3 23 3 9 1 10 1 11 4 1 2 2 4 4 5z m369-4l0-57c0 0-36-28-89-30-42-3-64-20-64-20-28-24-79-40-79-40 0 0-11 10-41 15-36 6-67 0-67 0 0 0 108 43 121 47 35 13 43 9 70 19 62 20 149 66 149 66z m-289-5c3 0 10-2 10-2 6-2 3-9-6-9-3 0-21 2-28-1-16-6-25-4-25-4 0 0-9 5-4 6 4 0 7 1 11 1 5 0 11 3 14 5 4 3 12 0 17 0 5-1 7-2 8 2 1 2 1 2 3 2z m-380-5c2 0 5 0 6 0 4-1 6-1 7-1-1 0 2 0 0 0 0 0 0 0 0 0 11-1 21-7 10-12-15-8-28-11-38-13-9-2-37-7-37-3 0 3 28 8 30 8 8 4 4 11-7 5-23-10-20-3-20-3 6 13 33 19 49 19z m213-5c12 0 28-3 48-6 33-6 55-5 57-8 5-5-26-4-34-4-9 1-35-3-60-8-25-5-46-3-72-1-13 1-29 3-53-10-36-19-41-8-41-8 0 0 13 9 19 11 15 4 24 7 24 7 0 0 14 4 20 9 7 5 13 7 15 9 2 1 14-1 23-3 9-2 20-1 34 7 6 3 12 5 20 5z m-126-12c8 1 14-1 14-3 0-3-13-6-29-13-15-7-25-12-27-8-3 5 17 16 17 16 8 6 17 8 25 8z m-53-5c4 1 7 0 10-2 0 0-14-7-12-14 2-6-45-5-36 1 0 0 22 15 38 15z m-152-41l230-144 0-32c0 0-56 27-73 34-16 6-55 9-62 17-7 7-33 53-49 68-17 15-45 50-46 57z m467-71c18 0 40-4 63-15 47-23 104-119 104-119l-19-25c0 0-35 59-61 89-27 30-81 38-118 36-38-3-200-71-200-71l0 33 177 63c0 0 22 9 54 9z m0-138c6 0 26-2 53-30 34-35 37-58 37-58 0 0-59 34-93 88 0 0 1 0 3 0z" horiz-adv-x="1000" />
<glyph glyph-name="house" unicode="&#xe801;" d="m512 774c-9 0-18-3-25-9l-144-113 0 75c5 3 9 10 9 17 0 10-6 18-13 18l-155 0c-7 0-13-8-13-18 0-7 4-14 9-17l0-185-159-145c-19-16-24-46-10-68 8-14 22-21 35-21 9 0 18 3 25 9l77 61 0-319-70 0 0-56-74 0 0-82 983 0 0 82-114 0 0 381 55-43c20-15 47-10 61 12 14 22 9 53-11 68l-441 345c-8 6-17 8-25 8z m-85-227l52 0 0-46c4 0 8 0 12 0 9 0 19 0 28-1l0 47 52 0 0-55c6-1 12-3 18-5 29-9 50-22 63-38 14-16 23-37 28-63l-79-10c-4 21-14 37-30 49l0-111c23-6 42-12 54-17 23-8 41-20 54-36 13-16 19-36 19-60 0-23-8-45-24-65-15-21-38-37-68-48-11-4-23-8-35-10l0-60-52 0 0 53c-5 0-9 0-13 0-10 0-19 0-27 1l0-54-52 0 0 61c-25 5-46 14-63 25-33 23-53 56-62 99l80 11c4-28 17-49 37-64 3-1 5-3 8-5l0 129c-18 5-32 10-42 14-23 10-40 23-52 39-12 17-18 35-18 55 0 19 5 36 15 51 9 16 23 29 39 39 13 8 30 15 52 21 2 0 4 1 6 1l0 53z m70-103c-7 0-13 0-18-1l0-107c8-2 17-4 27-6 4-1 8-2 13-3l0 116c-7 0-15 1-22 1z m-70-11c-4-1-7-3-10-5-16-11-24-23-24-37 0-9 4-18 10-25 6-6 14-11 24-16l0 83z m52-172l0-131c8-1 17-2 26-2 5 0 9 0 14 1l0 123c-4 1-7 2-11 3-10 2-20 4-29 6z m92-22l0-100c6 2 12 5 17 9 18 13 27 28 27 46 0 16-8 28-24 37-4 2-11 5-20 8z" horiz-adv-x="1000" />
<glyph glyph-name="io" unicode="&#xe802;" d="m243 634c-19 0-22-16-22-16l-98 0c-46 2-53-15-53-15l-51-111 0-29c0-18 60-19 60-19l859 0c39 0 46 20 46 20l0 28c0 0-39 95-47 109-8 14-35 13-35 13l-106 0c0 20-20 20-20 20l-533 0z m-224-194l0-230c0 0 5-40 54-42 40-1 117-1 150 0l0-30 24 0 8 65 0 1-111 0 0 37 18 29 0 149-112 0c0 0-23 0-31 21z m964-8c0-14-27-13-27-13l-94 0 0-146 27-31 0-36-115 0 15-68 19 0 0 31 129 0c32 0 46 38 46 38l0 225z m-797-13l0-149-15-26 47 0 0-17 42 0 13 112 473 0 25-108 37 0 1 13 53 0-22 26 0 149-654 0z m103-97l-32-263 529 0-54 263-443 0z" horiz-adv-x="1000" />
<glyph glyph-name="man" unicode="&#xe803;" d="m666 392c0 0-16 12-16 23-1 10-1 79-11 100-2 5-3 14-4 25 1 1 2 2 2 2 1 5-5 43-6 56 0 20 5 25 1 44-5 21-32 20-39 23-23 8-44 11-54 21-4 5-2 23-2 28-2 12 5 8 12 19 5 9 5 32 5 32l1 25c0 0 23 30-1 51-2 2-5-17-20-12-3 1-15 7-40 3-26-3-36-24-39-42-1-12 0-25 1-28 1-2-1-18 22-41 4-4 2-28-2-34-3-6-31-19-31-19 0 0-24-5-39-12-19-9-37-34-38-41 0-2-1-5-2-8-5-9-12-24-15-25l1 0c-9-15-23-39-27-49-6-14 3-29 3-29 0 0 56-82 65-91 9-9 41 2 41 2 0 0-20-92-11-175 1-7 3-47 3-47 0 0-7-33-3-51 6-30 12-197-10-215-39-32-65-22-68-33-5-17 26-17 26-17l96 2c0 0 19 4 12 39-7 34 6 115 8 123 2 12 9 63 7 85-1 23-4 102 2 124 5 23 7 70 8 83 1 13 6 24 6 24 0 0 13 4 12-50 0-22 2-47 8-77 8-41 16-61 25-83 0-1 0-17 3-38 9-54 20-148 18-167-1-16 1-44-6-62-6-17 9-18 9-18 0 0 70-4 73 11 4 14-25 46-28 80-4 34-4 134-4 165 0 31-11 63-11 63 0 0-3 113-3 120 0 8-6 58-6 74 0 33-7 57-9 69-4 22-11 35-8 49 2 14 10 75 10 75l1-8 2-26c0 0 1 1 2 1l6-45c0 0-1-19 4-26 18-43 22-73 22-73 0 0 1-22 4-35 0-3 6-7 7-10 2-3 4 17 6 15 4-6 6-31 6-31l16 1 5 35-8 26z m-238 72c-5-1-19-25-24-25-6 0-42 77-42 77 0 0-3 6-1 9 1 1 14 18 26 34l2-1c0 0 14 19 20 29 3 4 5 6 5 6 12-12 16-40 16-40l7-77c0 0-4-11-9-12z" horiz-adv-x="1000" />
<glyph glyph-name="man2" unicode="&#xe804;" d="m497 808c-43 0-78-35-78-78 0-44 35-79 78-79 44 0 79 35 79 79 0 43-35 78-79 78z m-76-175c0 0 0 0-1 0-15 1-29-8-35-22l-102-239c-8-19 0-41 19-49 19-8 41 1 49 20l56 130 0-140-56-390c-4-26 14-49 40-53 26-4 50 14 53 40l54 380 55-380c3-26 27-44 53-40 26 4 44 27 40 53l-55 386 0 44c1-1 3-2 4-2 19-10 41-3 51 15l59 111c10 18 4 39-13 50l-94 78c-5 4-11 7-18 8-1 0-2 0-4 0l-2 0-153 0z m170-100l33-28-33-63 0 91z" horiz-adv-x="1000" />
<glyph glyph-name="manflag" unicode="&#xe805;" d="m780 591c-13 29-33 74-85 97-96 44-143 73-189 148-3 4-7 5-10 4-4 0-6-1-6-1l0-419 0 0c0 0-65 35-74 54-1 4-2 13-4 24 2 0 2 1 3 1 1 5-5 41-6 53 0 18 4 23 1 41-5 19-30 19-37 21-21 8-41 11-50 20-4 4-2 22-2 26-2 11 5 8 11 18 5 8 5 30 5 30l1 23c0 0 21 28-1 48-2 2-5-16-19-11-3 1-14 6-38 3-24-3-33-23-36-40-1-11 0-23 1-25 1-3-1-18 21-39 3-4 2-27-2-32-3-5-29-18-29-18 0 0-23-4-37-11-18-8-34-31-35-39-1-2-1-4-2-7-5-8-12-23-14-23l1-1c-8-13-22-36-26-45-5-13 3-27 3-27 0 0 52-77 61-86 8-8 38 2 38 2 0 0-18-86-10-163 1-8 3-45 3-45 0 0-7-30-3-47 6-28 12-184-9-202-37-30-61-20-64-31-5-15 24-16 24-16l90 3c0 0 18 3 11 36-6 31 6 108 8 115 2 11 8 59 7 80-1 21-4 95 1 116 5 21 7 65 8 77 1 12 6 23 6 23 0 0 12 3 11-46 0-21 2-45 7-73 8-39 16-57 23-77 1-2 0-16 4-36 8-50 18-139 17-157-2-14 1-41-6-58-6-16 8-17 8-17 0 0 66-3 69 10 3 14-24 44-27 76-3 31-3 125-3 154 0 29-11 59-11 59 0 0-2 106-2 113 0 7-6 54-6 69 0 31-7 53-9 65-3 20-10 32-7 45 2 14 10 71 10 71l1-8 1-24c0 0 1 0 2 0l6-41c0 0 4-8 9-15 59-34 83-48 83-48l7-17 7-2 0-503c0 0 2-4 9-4 8 0 9 4 9 4l0 497 3-1 15 14 1 34-7 10-12 0 0 71c10 9 72 49 162 14 147-58 227-4 227-4 0 0-85 21-117 90z m-561-165c-5-1-18-23-23-23-5 0-39 72-39 72 0 0-3 5-1 8 1 2 13 17 25 32l1-1c0 0 13 18 19 28 3 3 5 5 5 5 11-11 15-38 15-38l6-72c0 0-4-10-8-11z" horiz-adv-x="1000" />
<glyph glyph-name="manflag2" unicode="&#xe806;" d="m538 838c-16 0-28-12-28-27 0-10 6-19 14-23l0-345-77 40-61 106c-5 8-13 14-22 17-2 1-4 1-7 1l-155 0c0 0-1 0-1 0-15 1-29-8-35-22l-102-239c-8-19 0-41 19-49 19-8 41 1 49 20l56 130 0-140-56-390c-4-26 14-49 40-53 26-4 49 14 53 40l54 380 55-380c3-26 27-44 53-40 26 4 44 27 40 53l-55 386 0 160 12-21c2-3 4-6 7-9 3-5 8-10 14-13l112-58c3-1 5-2 7-2l0-491 29 0 0 494c6 3 11 9 15 16 9 18 3 39-15 49l0 65c27 14 75 22 117-6 31-21 64-34 134-12 89 29 145-27 145-27l0 250c-36 54-103 47-103 47-58-13-103-8-164 29-44 28-99 17-129 9l0 5c9 4 12 13 12 23 0 15-12 27-27 27z m-260-56c-43 0-78-35-78-78 0-44 35-79 78-79 44 0 79 35 79 79 0 43-35 78-79 78z" horiz-adv-x="1000" />
<glyph glyph-name="minus" unicode="&#xe807;" d="m762 680c0 30 6 59 9 86 3 22 4 78-57 78-47-1-94-9-141-22-188-51-338-159-404-283-48-89-88-174-78-320 16-233 220-361 428-361 1 0 2 0 3 0 2 0 3 0 4 0 208 0 381 160 381 361 0 220-145 244-145 461z m-38-417c0-13-11-24-24-24l-393 0c-13 0-23 11-23 24l0 9c0 13 10 23 23 23l393 0c13 0 24-10 24-23l0-9z" horiz-adv-x="1000" />
<glyph glyph-name="minus-h" unicode="&#xe808;" d="m828 87c30 0 60-6 86-9 23-3 79-4 78 56 0 48-8 95-21 142-51 188-159 337-284 404-88 48-173 87-319 78-233-16-361-220-361-428 0-2 0-3 0-4 0-1 0-2 0-3 0-208 160-382 361-382 220 0 243 146 460 146z m-416 38c-13 0-24 10-24 23l0 393c0 13 11 24 24 24l8 0c13 0 24-11 24-24l0-393c0-13-11-23-24-23l-8 0z" horiz-adv-x="1000" />
<glyph glyph-name="minus-h2" unicode="&#xe809;" d="m969 280c-51 187-159 336-283 403-88 48-173 87-318 77-233-15-361-219-361-427 0-1 0-2 0-3 0-1 0-2 0-3 0-208 159-381 361-381 219 0 242 145 458 145 30 0 60-5 86-9 23-2 79-4 78 57 0 47-8 94-21 141z m-308 64c0-13-10-23-23-23l-392 0c-13 0-23 10-23 23l0 9c0 13 10 24 23 24l392 0c13 0 23-11 23-24l0-9z" horiz-adv-x="1000" />
<glyph glyph-name="photo" unicode="&#xe80a;" d="m373 744c-15 0-28-13-28-28l-23-102-111-14c-5 8-14 14-24 14l-76 0c-15 0-28-13-28-28l0-3-32-5c-15 0-28-12-28-27l0-560c0-15 13-28 28-28l897 0c16 0 28 13 28 28l0 572c0 15-12 27-28 27l-27 3 0 48c0 15-12 28-28 28l-107 0c-16 0-28-13-28-28l0-33-45 6-24 102c0 15-12 28-28 28l-288 0z m156-193c148 0 269-120 269-268 0-148-121-269-269-269-148 0-268 121-268 269 0 148 120 268 268 268z m0-40c-125 0-228-103-228-228 0-126 103-228 228-228 126 0 228 102 228 228 0 125-102 228-228 228z" horiz-adv-x="1000" />
<glyph glyph-name="plus" unicode="&#xe80b;" d="m958 473c-16 246-256 375-488 375-1 0-2-1-3-1-1 0-3 1-4 1-232 0-429-136-420-375 10-237 152-369 182-575 7-46 50-60 85-30 68 60 139 123 288 173 62 21 138 27 201 27 56 0 71 22 75 35 40 111 94 214 84 370z m-233-56c0-13-11-24-24-24l-170 0 0-170c0-13-11-23-24-23l-9 0c-13 0-24 10-24 23l0 170-170 0c-13 0-24 11-24 24l0 9c0 13 11 24 24 24l170 0 0 170c0 13 11 24 24 24l9 0c13 0 24-11 24-24l0-170 170 0c13 0 24-11 24-24l0-9z" horiz-adv-x="1000" />
<glyph glyph-name="plus-h" unicode="&#xe80c;" d="m624-105c244 16 371 254 371 484 0 1 0 2 0 3 0 1 0 2 0 4 0 230-134 426-371 416-236-9-366-151-571-180-46-7-60-50-30-84 60-68 122-139 172-286 20-62 27-137 27-199 0-56 21-71 34-76 110-39 213-92 368-82z m-56 231c-13 0-24 11-24 24l0 169-168 0c-13 0-24 10-24 23l0 9c0 13 11 24 24 24l168 0 0 169c0 13 11 23 24 23l9 0c13 0 24-10 24-23l0-169 169 0c13 0 23-11 23-24l0-9c0-13-10-23-23-23l-169 0 0-169c0-13-11-24-24-24l-9 0z" horiz-adv-x="1000" />
<glyph glyph-name="plus-h2" unicode="&#xe80d;" d="m21 540c60-67 122-138 172-286 20-62 27-137 27-199 0-56 21-71 34-76 110-39 213-92 368-82 245 15 372 254 372 484 0 1 0 2 0 4 0 1 0 2 0 3 0 230-134 427-372 417-236-9-366-151-571-180-46-7-60-51-30-85z m554 29c14 0 24-10 24-23l0-169 169 0c13 0 24-11 24-24l0-9c0-13-11-23-24-23l-169 0 0-169c0-13-10-24-24-24l-8 0c-13 0-24 11-24 24l0 169-169 0c-13 0-24 10-24 23l0 9c0 13 11 24 24 24l169 0 0 169c0 13 11 23 24 23l8 0z" horiz-adv-x="1000" />
<glyph glyph-name="terrain" unicode="&#xe80e;" d="m523 751c-22-1-46-16-61-40-16-26-33-56-63-100-38-58-72-56-79-64-5-6 36-151 63-143 26 8 52 59 78 62 33 5 81-77 94-79 0 0-3 25 34 46 37 21 59 52 77 76 10 12 16 26 1 39-73 57-76 108-92 160-10 31-30 44-52 43z m-278-139c-6 0-13-3-20-10-26-26-32-107-90-190-36-52-92-84-103-90-64-39 49-120 83-116 30 3 74 17 119 51 120 91 122 127 122 127-30 24-60 144-70 178-8 25-22 51-41 50z m519-37c-13 0-26-8-39-24-15-18-48-80-103-120-30-23-57-43-43-61 0 0 44-42 90-80 67-57 114-60 114-60 0 0 81-32 187 36 8 5 30 35 7 52-71 54-148 187-165 215-16 28-32 42-48 42z m-300-145c-30 0-81-75-149-140-73-71-176-125-176-125-57-14-52-53-28-56 24-4 127 3 230-58 190-111 272-100 298-99 46 1 124 27 37 96-51 41 80 77 128 83 81 10 41 47 10 55-32 8-152 45-282 190-30 33-45 52-67 54 0 0-1 0-1 0z" horiz-adv-x="1000" />
<glyph glyph-name="terrain2" unicode="&#xe80f;" d="m527 779c-26 0-53-15-70-41-15-26-28-55-59-99-40-57-63-62-71-70-5-7 36-151 63-143 27 8 52 58 78 62 33 5 81-77 95-79 0 0-11 26 27 47 36 21 57 50 80 75 10 11 36 33 19 42-64 36-72 101-104 165-13 28-35 40-58 41z m-294-145c-10 0-20-3-30-11-30-22-7-78-84-188-37-51-39-57-74-97-38-44-87-163 77-110 29 9 74 16 119 51 120 91 122 127 122 127-30 24-60 144-70 178-8 25-31 51-60 50z m568-17c-24 0-50-17-69-44-13-19-47-80-103-121-30-22-57-43-42-61 0 0 43-41 89-80 68-56 73-57 73-57 0 0 136-101 221-51 9 5 57 16 2 72-81 83-102 267-115 298-14 31-34 44-56 44z m-327-165c0 0-1 0-2 0-33-5-83-72-150-141-84-85-241-127-241-127-122-36-71-103-50-116 112-74 143-21 288-90 158-75 404-44 429-39 133 26 120 72 32 80-22 2-187 38-84 52 63 9 71-31 226-14 81 9 94 86 63 94-32 8-231-38-437 236-25 34-52 65-74 65z" horiz-adv-x="1000" />
<glyph glyph-name="tile" unicode="&#xe810;" d="m51 693c-16 0-30-14-30-30l0-474c0-16 14-30 30-30l747 0c17 0 30 14 30 30l0 474c0 16-13 30-30 30l-747 0z m61-42l126 0 0-12-126 0c-10 0-19-8-19-18l0-78-12 0 0 78c0 16 14 30 31 30z m499 0l126 0c17 0 31-14 31-30l0-78-12 0 0 78c0 10-8 18-19 18l-126 0 0 12z m247-80l0-410c0-16-13-28-28-28l-672 0 0-31c0-15 13-27 28-27l696 0c15 0 28 12 28 27l0 442c0 15-13 27-28 27l-24 0z m-433-74c6 0 11-5 11-11l0-49 49 0c6 0 11-5 11-11 0-6-5-11-11-11l-49 0 0-49c0-6-5-11-11-11-6 0-11 5-11 11l0 49-49 0c-6 0-11 5-11 11 0 6 5 11 11 11l49 0 0 49c0 6 5 11 11 11z m508-45l0-376c0-14-11-26-25-26l-616 0 0-28c0-14 12-25 26-25l638 0c14 0 25 11 25 25l0 405c0 14-11 25-25 25l-23 0z m-852-143l12 0 0-78c0-10 9-18 19-18l126 0 0-12-126 0c-17 0-31 14-31 30l0 78z m675 0l12 0 0-78c0-16-14-30-31-30l-126 0 0 12 126 0c11 0 19 8 19 18l0 78z" horiz-adv-x="1000" />
<glyph glyph-name="tile2" unicode="&#xe811;" d="m36 707c-15 0-28-13-28-28l0-456c0-16 13-29 28-29l719 0c16 0 29 13 29 29l0 456c0 15-13 28-29 28l-719 0z m63-37l168 0 0-23-168 0c-7 0-14-6-14-14l0-100-23 0 0 100c0 20 17 37 37 37z m426 0l167 0c21 0 38-17 38-37l0-100-24 0 0 100c0 8-6 14-14 14l-167 0 0 23z m-125-86l0 0c13 0 24-10 24-24l0-84 85 0c13 0 23-11 23-24l0-1c0-13-10-23-23-23l-85 0 0-85c0-13-11-24-24-24l0 0c-14 0-24 11-24 24l0 85-85 0c-13 0-24 10-24 23l0 1c0 13 11 24 24 24l85 0 0 84c0 14 10 24 24 24z m434-11l0-395c0-14-12-26-27-26l-646 0 0-30c0-15 12-26 27-26l669 0c15 0 27 11 27 26l0 425c0 14-12 26-27 26l-23 0z m110-143l0-362c0-13-11-24-24-24l-593 0 0-27c0-14 11-25 25-25l613 0c14 0 25 11 25 25l0 389c0 13-11 24-25 24l-21 0z m-882-62l23 0 0-100c0-7 7-14 14-14l168 0 0-23-168 0c-20 0-37 17-37 37l0 100z m644 0l24 0 0-100c0-20-17-37-38-37l-167 0 0 23 167 0c8 0 14 7 14 14l0 100z" horiz-adv-x="1000" />
<glyph glyph-name="tint" unicode="&#xe812;" d="m471 819c-2 0-4-1-5-4 0 0-67-123-136-244-40-70-35-249 140-246 170 4 169 163 138 240-11 27-101 217-131 251-2 1-4 3-6 3z m-32-90c0 0-15-81-25-162-6-51-15-98-35-106-31-12-38 10-42 23 0 0-8 36 21 98 29 63 81 147 81 147z m158-271c1 0 3-1 5-1 11-4 4-24 4-24 0 0-2-10-9-23-11 0-18 1-23 2 4 11 8 24 12 39 0 0 3 6 11 7z m190-24c-2 0-4-1-6-3 0 0-79-139-161-276-47-79-41-280 166-276 202 3 200 183 164 270-13 30-120 244-156 282-1 2-4 3-7 3z m-215-26c7-2 15-3 22-3-10-16-27-35-56-44 0 0 18 9 34 47z m-389-50c-2 0-3-1-4-3 0 0-63-101-127-200-37-57-38-207 115-208 150-2 153 131 129 196-9 23-82 183-108 212-1 2-3 3-5 3z m566-24c0 0-17-92-29-183-7-57-18-111-42-120-36-13-45 11-49 27 0 0-10 40 24 110 35 71 96 166 96 166z m-597-50c0 0-15-67-26-134-7-42-16-82-35-88-26-9-32 9-35 21 0 0-7 30 21 81 27 51 75 120 75 120z m130-230c2 0 4 0 6-1 8-3 2-20 2-20 0 0-2-8-9-19-9 0-16 1-20 3 4 8 8 19 12 31 0 0 3 6 9 6z m654-26c2 0 5-1 7-2 12-3 5-27 5-27 0 0-3-11-11-25-13 0-22 1-27 2 5 12 9 27 13 44 0 0 4 7 13 8z m-677-15c6-1 14-2 20-3-10-13-25-28-51-35 0 0 16 7 31 38z m648-42c8-1 18-2 26-3-12-18-32-39-67-49 0 0 22 10 41 52z" horiz-adv-x="1000" />
<glyph glyph-name="visiualize" unicode="&#xe813;" d="m896 712c-53-1-112-39-131-94-22-64-154-138-146-36 11 136-201 165-187 43 12-105-15-169-131-86-116 82-286-61-181-127 114-72 29-101-49-111-114-15-77-352 105-181 0 0 142 89 117 0-59-209 166-139 178-32 12 107 107 154 105 83-3-161 252-127 272 0 19 126-140 192-64 172 95-24 152-5 160 55 8 59-72 38-103 30-31-8-33 26 28 52 80 34 150 85 115 173-17 42-51 59-88 59z m-49-179c0 0 0-42-85-75-120-205-281-243-452-206-91 19-129-38-129-38 0 0-25 4 10 29 26 62 105 205 300 210 248 6 328 52 356 80z m-134-91c-37-10-85-18-147-22 2-75-52-138-122-142-58-4-110 35-129 91-60-38-97-89-117-122 1 1 2 1 3 2 88 54 154 0 264 13 173 21 237 152 248 180z m-297-38c-18-1-31-17-30-37 1-19 16-34 34-33 18 1 32 18 31 37-1 19-17 34-35 33z" horiz-adv-x="1000" />
<glyph glyph-name="visiualize2" unicode="&#xe814;" d="m113 846c-61 0-111-50-111-111l0-778c0-61 50-111 111-111l779 0c61 0 110 50 110 111l0 778c0 61-49 111-110 111l-779 0z m423-80l1-16 282-22-1 26 68 3 3-71-34-1-34-390 24 1 2-71-68-2 0 16-185-72c-113-110-364-174-461-69-97 105-35 237 100 325l-45 258-20-1-2 55 52 1 1-19 282 35-1 13 36 1z m-35-28l-281-34 113-39-1 23 85 3 1-33 375 59-256 19 1-7-37-2 0 11z m22-21c3 0 5-2 6-5l0-25c1-2-2-5-4-5-1 0-1 0-1 0-2 0-5 2-5 5l0 25c-1 3 2 5 4 5z m297-10l-290-45 1-25c0-2-2-5-5-5 0 0 0 0 0 0-3 0-5 2-5 5l-1 23-102-16 2-41-35-1 12-111c49 10 93 8 129 0l-1 21c0 3 2 5 5 5 3 0 5-2 5-5l1-23c44-12 74-33 85-55 18-37-6-75-33-97l7-2c3-1 4-4 4-7-1-2-3-3-5-3-1 0-1 0-2 0l-13 5c-7-5-14-8-20-10-32-8-66-53-37-63 30-11 39 14 85 14 47 0 25-58 25-58-5-8-11-16-17-24l163 64 0 8-22 8c-3 1-4 4-4 6 1 3 4 4 7 4l19-7-1 22 31 1 34 389-21-1-1 24z m-600-17l0-8-19-1 44-251c13 8 27 16 42 23 34 17 66 28 97 35l-12 113-37-1-1 51-114 39z m307-73c2 0 5-2 5-5l1-25c0-2-2-5-5-5 0 0 0 0 0 0-3 0-5 2-5 5l-1 25c0 3 2 5 5 5z m1-50c3 0 5-2 6-5l0-25c1-3-2-5-4-5-1 0-1 0-1 0-2 0-5 2-5 5l0 25c-1 3 2 5 4 5z m-83-197c-26 0-47-17-47-37 0-6 2-12 6-17 4 0 7-3 7-6l0-1c9-7 21-11 35-11 26 0 47 16 46 36 0 20-21 36-47 36z m172-43c0 0 1 0 2 0l23-8c3-1 4-4 3-7-1-2-2-3-5-3 0 0-1 0-1 0l-24 8c-2 1-4 4-3 6 1 2 3 4 5 4z m46-16c1 0 2 0 2 0l24-8c2-1 4-4 3-7-1-2-3-3-5-3 0 0-1 0-1 0l-24 8c-2 1-4 4-3 6 1 2 2 4 4 4z m47-16c1 0 1 0 2 0l24-8c2-1 4-4 3-7-1-2-3-3-5-3-1 0-1 0-2 0l-23 8c-3 1-4 4-3 6 0 2 2 4 4 4z m-67-194l5 0c8 0 15-5 15-10l0-9 263 0c7 0 12-6 12-12 0-7-5-13-12-13l-263 0 0-8c0-6-7-11-15-11l-5 0c-8 0-14 5-14 11l0 8-113 0c-7 0-12 6-12 13 0 6 5 12 12 12l113 0 0 9c0 5 6 10 14 10z m126-103l5 0c8 0 14-5 14-11l0-11 138 0c7 0 12-5 12-12 0-7-5-12-12-12l-138 0 0-11c0-6-6-11-14-11l-5 0c-8 0-14 5-14 11l0 11-239 0c-7 0-12 5-12 12 0 7 5 12 12 12l239 0 0 11c0 6 6 11 14 11z" horiz-adv-x="1000" />
<glyph glyph-name="visiualize3" unicode="&#xe815;" d="m539 785c0-3 0-6 0-8 0 5 0 8 0 8z m0-8c-1-18-8-58-57-60 13 0 59-3 55-51 0 0 3 49 43 50 0 0-39 3-41 61z m176-4c0-4 0-9 0-13 0 8 0 13 0 13z m0-13c-2-27-13-85-84-87 21 0 86-7 81-76 0 0 4 73 63 75 0 0-57 4-60 88z m-84-87c-4 0-6 0-6 0 2 0 4 0 6 0z m295 42c-48-110-169-114-413-156-471-83-479-415-479-415 3-48 53-10 53-10 160 63 234-110 490-12 154 59 221 211 245 339 9 48 27 75 42 89 135 62 62 165 62 165z m-496-66c0-2 0-5 0-7 1 4 0 7 0 7z m0-7c0-15-7-49-48-50 11 0 50-3 47-43 0 0 2 42 35 42 0 0-32 3-34 51z m-205-8c0-4 0-9 0-13 1 8 0 13 0 13z m0-13c-1-27-13-85-83-87 21 0 85-7 80-76 0 0 5 73 63 74 0 0-57 5-60 89z m-83-87c-4 0-7 0-7 0 3 0 5 0 7 0z m680-2c-13-14-24-33-45-108-88-311-350-338-472-292-124 46-163 32-189 30-16-1-16 23-50 16-1 0-1-1-2-1 8 38 14 66 29 95 33-37 147-134 316-126 25 2 52 5 79 12 209 50 212 278 203 358 38 1 58 2 80 5 19 3 36 7 51 11z m-156-17c9-76 19-296-181-344-214-52-348 83-380 119 17 30 38 57 62 79 19-26 116-144 264-112 156 34 161 194 157 254 28 2 54 3 78 4z m263-14c0-3 0-5 0-8 0 5 0 8 0 8z m0-8c-1-17-8-53-52-54 12 0 53-4 50-47 0 0 3 45 39 46 0 0-35 3-37 55z m-478-24c28 0 52-22 54-49 1-29-22-54-52-55-30-2-55 21-57 49-1 29 22 54 52 55 1 0 2 0 3 0z m391-119c0-5 0-9 0-13 1 8 0 13 0 13z m0-13c-1-27-12-85-83-87 21 0 86-7 80-76 0 0 5 73 63 74 0 0-57 4-60 89z m-83-87c-4 0-6 0-6 0 2 0 4 0 6 0z m-33-58c-1-3 0-5 0-7 0 4 0 7 0 7z m0-7c-1-14-7-45-45-46 10 0 46-3 43-40 0 0 2 38 33 39 0 0-30 2-31 47z m-649-15c4 0 8-1 12-4 11-10-25-26-33-20 2 5 4 12 5 17 3 2 9 6 16 7z m256-103c-12 0-22-9-22-21l0-7-134 0c-6 0-11-4-11-10 0-6 5-10 11-10l134 0 0-7c0-12 10-21 22-21 11 0 21 9 21 21l0 7 441 0c6 0 11 4 11 10 0 6-5 10-11 10l-441 0 0 7c0 12-10 21-21 21z m124-76c-12 0-21-9-21-21l0-14-259 0c-6 0-11-5-11-11 0-6 5-10 11-10l259 0c1-11 10-20 21-20 11 0 20 9 21 20l317 0c6 0 11 4 11 10 0 6-5 11-11 11l-317 0 0 14c0 12-9 21-21 21z" horiz-adv-x="1000" />
<glyph glyph-name="visiualize4" unicode="&#xe816;" d="m526 782c-1-18-8-58-57-60 13 0 59-3 55-51 0 0 3 49 43 50 0 0-39 3-41 61z m422-7c-32-72-121-121-246-155 5 21 20 56 60 57 0 0-57 4-60 88-2-27-13-85-83-87 19 0 74-6 80-59-65-18-140-31-221-42-21-2-40-6-59-9 3 12 12 28 33 28 0 0-33 3-34 51-1-15-8-49-49-50 10 0 41-2 46-30-83-17-148-44-200-77 8 21 23 47 57 47 0 0-57 4-60 89-1-27-12-85-83-87 18 0 70-6 79-53-196-129-187-337-187-337 3-48 58-19 58-19 160 63 236-107 492-9 154 59 229 207 252 335 9 48 48 82 63 97 151 75 62 222 62 222z m-149-241c-14-13-14-30-35-105-88-311-350-338-472-292-124 46-160 33-186 31-15-2-13 37-52 18-1 0-1 0-2-1 8 38 12 55 27 84 33-37 155-131 323-122 25 1 52 5 79 11 209 51 219 284 210 364 38 1 45 1 67 4 19 3 26 4 41 8z m-146-14c10-76 25-290-175-339-214-51-340 93-372 129 17 31 24 42 48 64 19-26 132-156 281-123 155 33 156 205 152 265 28 2 42 3 66 4z m263-22c-1-17-8-53-52-54 12 0 54-4 50-47 0 0 3 45 39 46 0 0-35 3-37 55z m-478-24c28 0 52-22 54-49 1-29-22-54-52-55-30-2-55 21-56 49-2 29 21 54 51 55 1 0 2 0 3 0z m392-132c-2-27-13-85-84-87 21-1 86-7 81-76 0 0 4 73 63 74 0 0-57 4-60 89z m-117-152c-1-14-7-45-45-46 10 0 46-3 43-40 0 0 2 38 33 39 0 0-30 2-31 47z m-647-15c4 0 7-1 10-4 11-10-25-26-33-20 2 5 4 12 5 17 4 3 11 7 18 7z m254-103c-12 0-21-9-21-21l0-7-135 0c-6 0-11-4-11-10 0-6 5-10 11-10l135 0 0-7c0-12 9-21 21-21 11 0 21 9 21 21l0 7 441 0c6 0 11 4 11 10 0 6-5 10-11 10l-441 0 0 7c0 12-10 21-21 21z m124-76c-12 0-21-9-21-21l0-14-259 0c-6 0-11-5-11-11 0-6 5-10 11-10l259 0c1-11 10-20 21-20 11 0 21 9 21 20l317 0c6 0 11 4 11 10 0 6-5 11-11 11l-317 0 0 14c0 12-9 21-21 21z" horiz-adv-x="1000" />
<glyph glyph-name="2d" unicode="&#xe817;" d="m133 684c-55 0-100-45-100-100l0-486c0-55 45-99 100-99l738 0c55 0 100 44 100 99l0 486c0 55-45 100-100 100l-738 0z m140-106c46 0 83-13 110-38 26-25 40-56 40-93 0-22-4-42-12-61-8-19-20-39-36-60-11-14-31-34-59-60-29-27-47-44-55-53-7-8-13-17-18-25l180 0 0-84-317 0c3 32 13 62 30 91 18 28 52 66 102 113 41 38 66 63 75 77 13 19 19 37 19 55 0 20-6 36-16 47-11 11-26 16-45 16-19 0-34-6-45-17-12-11-18-30-20-57l-90 9c6 50 22 86 51 108 28 21 63 32 106 32z m230-2l174 0c40 0 70-3 90-9 28-8 52-23 71-43 20-21 35-47 45-77 11-30 16-67 16-111 0-39-5-73-15-101-11-34-28-62-50-83-17-16-39-29-67-38-21-6-49-10-84-10l-180 0 0 472z m96-80l0-312 71 0c26 0 45 1 57 4 16 4 29 11 39 20 10 9 18 24 25 45 6 22 9 50 9 87 0 36-3 64-9 84-7 19-16 35-27 46-12 11-27 18-44 22-14 3-40 4-79 4l-42 0z" horiz-adv-x="1000" />
<glyph glyph-name="3d" unicode="&#xe818;" d="m998 352c-1 12-1 23-2 34-1 10-2 20-3 30-2 10-3 19-6 28-2 9-4 17-7 25-3 8-6 15-9 23-4 7-8 14-12 21-4 7-8 13-13 19-5 6-10 12-15 18-6 6-12 11-18 16-6 4-12 9-18 13-7 4-14 7-21 11-7 3-15 6-22 8-6 2-13 3-20 5-7 1-15 3-23 4-9 1-18 2-28 2-10 1-20 2-31 2l-208 6-144-63c0 0 0 1 0 1-6 7-12 14-19 21-9 8-19 16-29 22-10 7-21 12-33 16-11 5-24 8-37 11-14 2-28 4-43 4-8 1-17 0-25 0-9 0-17-1-25-2-8-2-15-3-23-5-8-2-15-4-22-7-7-3-14-6-21-9-6-3-12-7-18-11-5-4-11-8-15-12-5-5-10-9-14-14-4-5-8-10-11-16 0 0 0 0 0 0-13-21-26-43-39-64-2-3-4-6-5-10-2-3-3-7-5-11-1-3-3-7-4-11-1-5-2-9-3-13l80-12 68 37c0 4 1 8 2 12 2-1 4-1 5-2 3-1 6-2 9-3 2-2 4-3 7-5 2-2 4-4 5-6 2-3 4-5 5-8 1-2 2-5 2-8 1-3 1-6 1-9 0-3 0-7-1-10 0-1 0-2 0-3l-1 0 0 0c0-3-1-5-2-7-2-3-3-6-6-8-2-3-4-5-7-8-1 0-1 0-1 0l-30-8-22-4-8-60 79-9c0 0 0 0 0 0 1 0 1 0 1-1 3-2 6-5 8-8 2-3 4-7 5-10 2-4 3-7 3-11 1-5 2-9 2-13 0-5-1-10-1-14-1-4-2-8-4-12-1-4-3-8-5-11-2-3-5-6-8-9 0-1-1-2-2-3-1 0-1 0-1-1-1 0-2-1-3-2 0 0 0 0 0 0-1-1-2-2-3-2 0 0-1-1-1-1-1 0-2-1-2-1-1 0-1-1-1-1-1 0-2-1-4-1 0 0 0 0 0-1-1 0-2 0-3-1 0 0 0 0-1 0-1-1-2-1-3-1 0 0 0 0 0 0-1-1-3-1-4-1 0 0-1-1-1-1-1 0-1 0-2 0-1 0-1 0-1 0-1 0-2-1-3-1 0 0 0 0-1 0-1 5-2 10-3 16l-68 38-84-11c1-3 2-7 2-11 1-3 2-7 3-10 1-3 3-6 4-10 2-3 3-6 5-9 12-21 23-41 35-62 0 0 0 1 0 1 1-2 2-4 3-6 6-9 13-18 21-26 8-9 17-16 27-23 10-7 20-13 31-18 11-5 23-9 35-12 12-3 25-5 38-6 13-1 27-2 41-1 15 1 30 3 43 5 14 3 27 7 39 12 13 5 24 10 35 17 11 7 21 15 31 23 8 8 15 15 22 23l131-56 212 10c11 0 20 1 29 2 9 1 18 2 26 3 7 2 15 3 22 5 7 1 13 3 19 5 8 3 15 6 22 9 7 3 13 7 20 10 6 4 11 8 17 12 5 4 10 8 14 12 6 6 12 12 17 19 5 7 10 14 14 21 5 7 9 15 13 24 4 8 7 16 10 25 3 8 5 16 7 24 2 8 3 16 4 25 1 9 2 18 3 27 0 10 1 19 1 29z m-885-120l0 0-3 0-80-10-6-1 1-5-4 6c-1 3-3 6-4 9-1 3-3 6-4 9-1 3-2 6-2 10-1 1-1 3-1 4l75 10 50-29-22-3z m306 278c-1 4-2 8-3 12l120 42 1-31-116-35c0 4-1 8-2 12z m-52-120c3 2 5 4 7 5 6 5 12 10 17 15l147 34 0-36-171-30 0 12z m170 104l-117-31c1 8 2 15 2 23 0 1 0 2 0 4l115 35 0-31z m-136-72c7 9 12 19 16 30 0 1 1 2 1 3l119 31 1-34-139-32c1 1 2 1 2 2z m-18-66c-5 3-10 5-16 7l0 7 171 30 0-38-136-18c-6 5-12 9-19 12z m156-2l0-45-103-4c0 2-1 4-3 5-3 7-8 13-13 18-3 4-6 7-10 10l129 16z m-91-142c1 2 1 4 1 6l91-16 1-41-99 29c3 7 5 14 6 22z m2 14c1 6 2 13 1 20 0 3 0 6 0 9l89-5 0-40-90 16z m0 37c0 2 0 4-1 6-1 8-3 15-6 22-1 2-2 4-3 7l99 3 1-43-90 5z m86 345l0-36-123-43c-1 1-1 3-2 4-3 5-6 11-9 16l134 59z m-175-222l0-20c0 0 0 0 0 0-8 2-17 5-25 6 9 5 17 9 25 14z m-48-92c3-4 5-9 7-13 2-5 3-10 4-16 1-4 2-8 2-12l-111 6c0 2 1 4 1 6 1 5 1 10 1 15 0 5-1 9-1 14 0 0 0 0-1 1l95 3c1-2 2-3 3-4z m-147 212c0 0 10 14 34 23 3 2 7 3 11 4 3 2 7 2 11 3 4 0 7 0 11 0 1 0 1 0 2 0 5 0 9 0 14-1 4 0 8-2 12-3 4-1 7-3 11-5 1-1 3-1 4-2l-116-32c1 3 2 6 4 8 1 2 1 4 2 5z m-80-68l-71 11 18 33 4-1 75-11 1 0 24-4-51-28z m96 37c-2 2-5 4-8 6-3 1-6 3-10 4 0 0-1 0-2 1l121 33c2-2 4-4 5-6 2-3 4-6 6-10 1-3 2-7 3-10 0-1 0-2 0-2l-107-25c0 1-1 1-1 2-2 2-4 5-7 7z m14-25c0 3-1 6-2 9l104 24c0-1 0-2 0-2 0-5 0-10-1-15-1-4-2-8-4-12-1-2-3-4-4-7l-93-18c1 3 2 7 1 11 0 4 0 7-1 10z m-10-42c3 3 5 6 7 10 0 1 0 1 1 2l87 18c-2-2-4-3-6-5 0 0-1-1-2-1 0-1 0-1 0-1l-1 0 0 0 0 0-1-1 0 0c-1 0-1-1-2-1 0 0 0 0 0 0l0 0-1-1c0 0 0 0 0 0l0 0c-1 0-1 0-1-1l-1 0c0 0 0 0 0 0-1-1-2-1-4-2 0 0 0 0 0 0l0 0c-1 0-1 0-1 0 0 0 0 0 0 0-2-1-3-2-5-2 0 0 0 0 0 0l0 0c0 0-1 0-1-1-1 0-2 0-3-1 0 0 0 0-1 0 0 0 0 0 0 0 0 0-1 0-1 0l0 0c0 0 0 0 0 0-1 0-1 0-1 0-1-1-3-1-4-2 0 0-1 0-1 0 0 0 0 0 0 0l-1 0 0 0 0 0-1 0 0 0 0 0-57-12c1 0 1 1 1 1z m1-78l0 0 0 0-67 7 7 49 70 18-10-74z m19-13c-2 3-4 6-7 8 3 1 6 1 9 2 2 1 4 1 7 1l40-2c5 0 9-1 14-2 4-1 8-2 12-4 4-2 8-4 11-6 4-3 8-6 11-9 0 0 0 0 0 0l-89-2 0-2c-1 2-1 3-2 5-1 4-4 8-6 11z m-12-91l0 0c1 0 1 1 1 1 1 1 2 2 3 3 3 3 6 6 9 10 2 4 4 8 6 12 0 0 0 0 0 0l0 0 113-7c0-6-1-11-1-17-1-5-3-11-5-16-1-3-2-6-3-8l-124 21c0 0 1 1 1 1z m-35-16c1 1 2 1 3 1 0 0 1 0 1 0 1 0 2 0 3 1l0 0c0 0 1 0 1 0 1 0 2 1 4 1 0 0 0 0 0 0l1 0c1 1 2 1 3 1l0 1c0 0 0 0 1 0 1 0 2 1 3 1 0 0 0 0 0 0 2 1 3 2 4 2l1 1 0 0 129-22c-3-5-6-9-10-13-1-1-2-2-4-3 0 0 0 0 0-1l0 0c0 0 0 0-1 0-1-1-2-2-3-3 0 0 0 0 0 0l0 0c0 0-1 0-1 0-1-1-2-2-3-3l0 0-1 0c0 0 0-1 0-1l0 0c0 0-1 0-1 0-1-1-2-1-3-2 0 0 0 0-1 0l0-1 0 0 0 0c0 0 0 0 0 0-2-1-3-1-4-2l0 0c-1 0-1 0-1 0-1-1-2-1-3-2 0 0 0 0 0 0 0 0-1 0-1 0 0 0 0 0 0 0l0 0c-1 0-1 0-1-1 0 0-1 0-1 0l-108 30c-1 1-1 2-1 2-2 4-4 9-6 13 0 0 0 0 0 0z m98-49c-1 0-1 0-1-1 0 0 0 0 0 0l-1 0c0 0 0 0 0 0-1 0-2 0-3 0-1 0-1 0-1 0 0 0 0 0 0 0l0 0-1 0c-2 0-3 0-5 0-1-1-1-1-2-1l-1 0 0 0 0 0 0 0-1 0 0 0 0 0 0 0c-1 0-2 0-3 0l0 1 0 0-1 0 0 0c0 0-1 0-1 0 0 0-1 0-1 0l0 0c-1 0-1 0-2 0 0 0-1 0-2 0 0 0 0 0 0 0l-1 0 0 0c-1 0-2 0-3 1l0 0c-1 0-2 0-3 0 0 0 0 0-1 0l0 0 0 0c-1 0-2 1-3 1 0 0 0 0-1 0 0 0-1 0-2 1l0 0 0 0-1 0 0 0c-1 0-1 0-2 1l0 0c-1 0-1 0-1 0l0 0 0 0c-1 0-1 0-2 1l0 0-1 0 0 0c-1 0-2 1-3 1l0 0-1 0c0 1-1 1-2 2l0 0 0 0-1 0 0 0c-1 0-1 0-1 1l0 0-1 0c0 0 0 0-1 0l0 1c0 0-1 0-2 1l0 0c0 0 0 0-1 0 0 1-1 1-1 1l-1 1c0 0 0 0 0 0-1 1-2 1-3 2l-11 8 79-22c0 0 0 0 0 0-1 0-2 0-3 0z m163-10c7 9 13 19 18 29 0 1 1 2 1 3l102-30 0-54-121 52z m470 177c0-8-1-16-1-24-1-8-2-15-4-21-1-7-2-13-4-19-2-6-4-11-6-16-2-5-4-9-6-13-2-4-5-8-7-11-3-4-6-7-8-9-3-3-6-5-9-7-4-2-7-4-11-6-3-2-7-4-11-5-4-2-8-3-12-4-4-1-8-2-12-3-4-1-9-1-15-2-5-1-11-1-18-1-6-1-14-1-21-2l-83-2-4 343 51-1c11 0 21 0 31-1 9 0 17-1 25-1 7-1 14-1 20-2 5-1 10-1 14-2 5-1 10-3 14-4 5-2 9-4 13-6 5-2 8-4 12-7 4-2 7-5 11-8 3-3 6-6 9-10 3-3 6-7 8-11 3-4 5-9 7-13 2-5 4-10 6-15 2-5 4-11 5-17 1-6 3-13 4-21 1-7 1-15 2-24 0-8 1-17 1-27 0-10 0-19-1-28z" horiz-adv-x="1000" />
<glyph glyph-name="3d-2" unicode="&#xe819;" d="m53 686c-16 0-28-12-28-27l0-626c0-15 12-27 28-27l898 0c15 0 27 12 27 27l0 626c0 15-12 27-27 27l-898 0z m199-61c4 0 8 0 12 0 13-1 26-2 38-5 12-2 24-6 34-10 11-4 21-10 30-16 9-6 18-13 26-22 6-6 12-13 17-20 0-1 0-1 1-2l130 63 188-6c10-1 20-1 29-2 9-1 17-2 25-3 7-1 14-2 21-3 6-2 12-3 17-5 7-2 14-5 20-8 7-4 13-7 19-11 6-4 12-8 17-13 6-5 11-10 16-15 5-6 9-12 14-18 4-6 8-12 12-19 3-6 7-13 10-21 3-7 6-14 9-22 2-8 4-16 6-25 2-8 4-17 5-27 1-9 3-19 3-30 1-10 1-21 1-32 1-10 0-20 0-29-1-9-1-18-3-27-1-8-2-17-4-25-1-8-3-15-6-22-2-9-6-18-9-26-3-8-7-16-11-23-4-7-9-14-13-21-5-6-10-12-15-18-4-4-9-9-14-13-4-3-10-7-15-11-6-3-12-7-18-10-6-3-13-6-20-8-5-2-11-4-17-6-6-2-13-3-20-4-8-1-15-3-23-3-9-1-17-2-26-2l-193-10-119 55c-6-8-12-15-19-22-9-9-18-17-28-23-10-7-21-13-32-17-11-5-23-9-35-11-12-3-25-5-39-6-13 0-26 0-38 1-12 1-23 3-34 6-11 3-22 7-32 12-10 5-19 11-28 18-9 6-17 14-24 22-7 8-14 16-19 26-1 1-2 3-3 5 0 0 0 0 0 1-11 20-21 40-32 60-1 3-3 6-4 9-1 3-3 6-4 9-1 4-1 7-2 10-1 4-2 7-2 11l76 10 61-37c1-5 2-10 3-15 1 0 1 0 1 0 1 0 2 0 2 0 1 0 1 0 1 0 1 1 2 1 2 1 1 0 1 0 1 0 1 0 3 1 4 1 0 0 0 0 0 0 1 1 2 1 3 1 0 0 0 1 1 1 1 0 2 1 2 1 1 0 1 0 1 0 1 1 2 1 3 2 0 0 0 0 0 0 1 1 2 1 3 2 0 0 0 0 0 0 1 1 2 2 3 2 0 0 0 1 1 1 0 0 1 1 2 2 0 0 0 0 1 0 0 1 1 2 2 3 3 3 5 6 7 9 2 3 4 7 5 11 1 4 2 8 3 12 0 4 1 8 1 13 0 5-1 9-1 13-1 4-2 7-3 11-2 3-3 7-5 10-2 3-5 6-7 8 0 0-1 1-1 1 0 0 0 0 0 0l-72 9 8 58 19 5 27 7c1 0 1 1 1 1 3 2 5 4 7 7 2 3 4 5 5 8 1 2 2 4 2 6l0 1 1 0c0 1 0 2 0 3 1 3 1 6 1 10 0 3 0 6-1 9 0 3-1 5-2 8-1 2-2 5-4 7-1 2-3 4-5 6-2 2-4 3-7 5-2 1-5 2-7 3-2 1-3 1-5 2-1-4-2-8-2-12l-61-36-73 11c1 5 2 9 3 13 1 4 2 8 4 12 1 3 2 7 4 10 1 3 3 7 5 10 11 21 23 42 35 62 0 1 0 1 0 1 3 5 7 10 10 15 4 5 8 10 12 14 4 4 9 8 14 12 5 4 11 8 17 11 6 3 12 6 18 9 7 2 13 4 20 6 7 2 14 4 21 5 8 1 15 2 23 2 3 1 7 1 11 1z m282-21l-121-58c3-6 6-11 8-16 1-1 1-3 2-4l112 43-1 35z m1-43l-110-42c2-4 3-8 4-12 0-4 1-8 1-12l105 36 0 30z m-275-28c-3 0-7 0-10 0-4-1-7-1-10-3-4-1-7-2-10-4-21-9-30-22-30-22-1-2-2-3-3-5-1-3-2-5-3-8l105 31c-1 1-3 2-4 2-3 2-6 4-10 5-3 2-7 3-11 3-4 1-8 1-12 1-1 0-2 0-2 0z m385-10l3-337 75 3c7 0 14 0 20 1 6 0 11 1 16 1 5 1 10 1 14 2 4 1 7 2 10 3 4 1 8 2 11 4 4 1 7 3 11 5 3 1 6 3 9 6 3 2 6 4 8 7 3 2 5 5 7 8 3 3 5 7 7 11 2 4 4 9 6 13 2 5 3 10 5 16 1 5 3 11 4 18 1 7 2 14 3 21 0 8 1 16 1 24 1 9 1 18 1 27 0 10-1 19-1 27-1 8-1 16-2 23-1 8-2 14-3 21-2 6-3 12-5 17-1 5-3 10-5 14-2 5-4 9-7 13-2 4-4 8-7 11-3 4-5 7-8 10-3 3-7 5-10 8-3 2-7 5-11 7-3 2-7 3-12 5-4 1-8 3-13 4-3 1-7 2-12 2-6 1-11 2-18 2-7 1-15 1-23 1-9 1-18 1-28 1l-46 1z m-110 0l-104-35c0-2 0-3 0-5 0-7 0-14-2-21l106 30 0 31z m-230-7l-109-33c0 0 1 0 2 0 3-1 6-3 8-4 3-2 5-4 8-6 2-2 4-4 6-7 0-1 1-1 1-2l97 24c0 1 0 2 0 2-1 4-2 8-3 11-1 3-3 6-5 9-1 2-3 4-5 6z m230-32l-108-31c0-1 0-2 0-3-4-10-8-20-15-29 0-1-1-1-1-2l125 32-1 33z m-216-3l-95-24c1-2 2-5 3-8 0-3 1-7 1-10 0-4-1-8-1-11l84 18c1 2 2 4 3 6 2 4 3 8 4 12 1 5 1 10 1 14 0 1 0 2 0 3z m-241-1l-16-33 64-10 47 27-22 4-1 0-68 11-4 1z m458-37l-133-34c-5-5-10-10-15-14-2-2-4-3-7-5l1-13 154 30 0 36z m-233-6l-79-18c0-1 0-1-1-2-1-4-3-7-5-10-1 0-1 0-1-1l51 12 0 0 0 0 1 0 0 0 0 0 1 0c0 0 0 0 0 0 0 0 0 0 1 1 1 0 2 0 3 1 1 0 1 0 1 0 0 0 0 0 0 0l0 0c1 0 1 0 1 0 0 0 0 0 1 0 0 0 0 0 0 0 1 1 2 1 3 1 0 1 0 1 1 1l0 0c0 0 0 0 0 0 1 0 3 1 4 1 0 1 0 1 0 1 0 0 1 0 1 0l0 0c0 0 0 0 0 0 2 1 3 1 4 2 0 0 0 0 0 0l0 0c1 0 1 1 1 1l1 0c0 0 0 0 0 0l0 0c0 0 0 1 0 1 1 0 2 0 2 1l1 0 0 0 0 1 1 0 0 0c0 0 0 0 0 0 1 1 2 1 2 2 2 1 4 3 5 5z m-75-34l-64-17-7-48 61-8 0 1 10 72z m308-4l-154-29 0-7c5-2 9-4 14-7 6-3 12-7 17-11l124 17-1 37z m-160-13c-7-5-15-10-23-14 8-2 15-4 23-6 0 0 0 0 0 0l0 20z m161-32l-117-16c3-3 6-6 9-9 5-6 9-12 13-18 0-1 1-3 2-5l93 4 0 44z m-294-25c-2 0-4-1-6-1-2-1-5-2-8-2 3-3 5-5 7-8 2-4 4-7 5-11 1-2 1-3 2-5l0 2 80 2c0 0 0 0 0 0-3 3-6 6-9 9-4 2-7 4-11 6-3 1-7 3-11 4-4 1-8 1-12 2l-37 2z m294-27l-89-3c1-2 2-5 2-7 3-7 5-14 6-21 0-2 0-4 1-6l81-5-1 42z m-207-3l-86-3c0 0 0-1 0-1 1-5 1-9 1-14 0-5 0-10-1-14 0-2 0-4-1-6l101-6c0 4-1 8-1 12-1 5-3 10-4 15-2 5-4 9-7 13-1 1-1 3-2 4z m-204-34l-69-9c1-1 1-3 1-4 1-4 2-7 3-10 1-3 2-6 3-9 1-3 3-6 4-9l3-6 0 6 5 0 73 10 2 1 20 3-45 27z m331-8c1-3 1-6 1-9 0-7-1-13-1-20l81-15 0 39-81 5z m-216-3c0 0 0 0 0 0-1-4-3-8-5-12-2-3-5-7-8-10-1-1-1-2-2-3-1 0-1 0-1 0l0-1c-1 0-1 0-1-1l112-20c1 2 2 5 3 7 2 6 3 11 4 17 1 5 1 10 1 16l-103 6 0 1z m-26-33l0 0c-2-1-3-1-4-2 0 0 0 0 0 0-1-1-2-1-3-2 0 0 0 0-1 0l0 0c-1 0-2-1-3-1l0 0c0 0 0 0-1 0-1-1-2-1-3-1 0 0-1-1-1-1l0 0c-1 0-2 0-2 0-1 0-1 0-2 0 0-1-1-1-2-1 0 0 0 0 0 0 1-4 3-9 5-13 0 0 1-1 1-2l98-29c0 0 1 0 1 0 0 0 0 0 0 0l1 0c0 0 0 0 0 0 0 1 0 1 1 1 0 0 0 0 0 0 1 0 1 1 3 1 0 0 0 0 0 0l0 0c1 1 2 2 4 3 0 0 0 0 0 0l0 0c1 0 1 0 1 0 1 1 2 2 3 2 0 0 0 1 0 1l1 0c0 0 0 0 0 0l0 0 0 0c1 1 2 2 3 3 1 0 1 0 1 0l0 0c0 0 0 0 0 0 1 1 2 2 3 3 0 0 0 0 1 1l0 0c0 0 0 0 0 0 1 1 2 3 3 4 4 3 7 7 9 12l-117 21z m241 0c0-2-1-4-1-7-2-7-4-14-6-21l89-28 0 40-82 16z m-244-35l11-8c1 0 1-1 2-2 0 0 0 0 1 0l0 0c1-1 1-1 2-1 0-1 0-1 0-1l1 0c0 0 1-1 1-1l0 0c1 0 1 0 1-1l0 0 1 0c0 0 0 0 0 0l1-1 0 0 0 0 1 0c0 0 1-1 2-1l0 0 0 0c1-1 2-1 3-1l0-1 1 0 0 0c0 0 1 0 1 0l0 0 1-1c0 0 0 0 0 0l1 0c0 0 1 0 1-1l1 0 0 0 0 0 1 0c0 0 1 0 1 0 1-1 1-1 1-1 1 0 2 0 2 0l1 0 0 0c0 0 0 0 1 0 0-1 1-1 2-1l0 0c1 0 2 0 3 0l0 0 1 0c0 0 0 0 0 0 1-1 2-1 2-1 1 0 1 0 1 0l1 0c0 0 0 0 0 0 1 0 1 0 2 0l0 0 0 0 0 0 1 0c0 0 1 0 2 0l0 0 0 0 1 0 0 0 0 0 0 0 0 0 1 0c1 0 1 0 2 0 1 0 3 0 4 0l1 0c0 0 0 0 0 0 0 0 1 1 1 1 1 0 2 0 3 0 0 0 0 0 0 0l0 0c0 0 1 0 1 0 0 0 0 0 0 0 1 0 2 0 3 1 0 0 0 0 0 0l-72 21z m234 0c0-1 0-2-1-3-4-10-9-19-15-28l109-51-1 53-92 29z" horiz-adv-x="1000" />
<glyph glyph-name="attitude" unicode="&#xe81a;" d="m499 834c-268 0-486-217-486-485 0-268 218-486 486-486 268 0 485 218 485 486 0 268-217 485-485 485z m0-88c219 0 397-178 397-397 0-219-178-397-397-397-219 0-397 178-397 397 0 219 178 397 397 397z m-303-304c-15 0-27-12-27-28l0-87c0-15 12-28 27-28l228 0 0-190c0-15 12-28 28-28l94 0c15 0 28 13 28 28l0 190 227 0c15 0 28 13 28 28l0 87c0 16-13 28-28 28l-605 0z" horiz-adv-x="1000" />
<glyph glyph-name="bulb" unicode="&#xe81b;" d="m505 841c-236-4-295-205-291-312 5-125 109-215 118-253 0 0 29-49 25-133 0 0-5-45 52-55l193 0c0 0 41 12 49 52 8 40 0 58 11 105 16 62 84 118 123 237 38 118-48 363-280 359z m-106-72c8 0 18-3-1-25-20-23-33-42-54-74-3 6-20 14-50 8 22 33 54 64 98 90 0 0 3 0 7 1z m-97-117c12 0 21-2 26-8-22-56-44-117-15-195 0 0 50-91 32-98 0 0-86 51-89 192-1 38 6 71 22 106 9 2 17 3 24 3z m444-50c1-1 2-1 4-3 0 0 41-101-51-223-92-121-72-183-72-183 0 0 7-63-19-59 0 0-14 112 18 166 38 66 101 140 115 214 11 58-1 88 5 88z m-342-525l-1-29-18 0 0-18c4-1 26-4 54 2 123 25 177 18 177 18l0 16c-19-2-29 0-29 0l0 11-183 0z m164-52c-8 0-16 0-24 0-42-3-106-18-147-12l0-18c0 0 49-2 88 6 69 14 131 5 131 5l0 17c0 0-23 2-48 2z m-12-39c-4 0-8 0-11 0-43-3-87-17-148-14l0-17c0 0 49-2 88 6 85 16 131 5 131 5l0 17c0 0-32 4-60 3z m46-45c-27 1-66-3-96-11-73-17-112 1-112 1l47-36 121 0 62 45c-6 1-13 1-22 1z m-145-61c0 0 16-22 44-24 27-2 53 24 53 24l-97 0z" horiz-adv-x="1000" />
<glyph glyph-name="dipslope" unicode="&#xe81c;" d="m978 93c0 0-3 73-33 137-41 87-65 147-90 178-29 37-46 63-59 84-14 21-26 35-39 50-22 24-83 49-84 48-115 39-170 55-216 30-204-112-394-330-437-424-5-13 3-21 3-21 0 0 74-89 118-100 82-22 827 3 827 3 3 0 6 2 9 5 2 3 3 7 1 10z m-78 188l-142-185-77 1 188 241c10-17 21-37 31-57z m-59 112l-249-296-75 0 290 342c9-13 20-28 34-45 0 0 0-1 0-1z m-58 82l-347-378-84 1 409 410c6-8 12-18 20-30 0-1 1-2 2-3z m-69 67l-450-444-56 0c0 0 93 122 263 272 89 80 173 160 173 160 3 3 27 18 32 18 13 0 26-2 38-6z m127-446l92 115c19-41 15-95 23-115l-115 0z" horiz-adv-x="1000" />
<glyph glyph-name="draw" unicode="&#xe81d;" d="m906 709c0 0-24-20-41-28 0 0 28 0 37-25 0 0 11 23 22 40 0 0 0 10-12 12-2 1-3 1-6 1z m-44-32c0 0-41-45-84-92l-716 0c-16 0-28-12-28-27l0-536c0-16 12-28 28-28l879 0c15 0 27 12 27 28l0 536c0 15-12 27-27 27l-104 0c34 36 62 66 62 66 0 0-5 21-37 26z m-782-145l57 0c9 0 16-7 16-16 0-8-7-16-16-16l-57 0c-9 0-16 8-16 16 0 9 7 16 16 16z m126-5l517 0c-24-26-42-46-45-49-22-24-123-132-123-132 0 0 14-18 41-32 0 0 111 135 119 144 4 3 32 33 66 69l101 0c15 0 28-13 28-28l0-147-308-64c0 0-65-15-83-26l13 10c-11 1-14 9-14 9l-7-15c0 0-3-4 0-5 2-2 4-1 6 0-1-1-1-1-2-1l395 38 0-218c0-15-13-27-28-27l-676 0c-15 0-28 12-28 27l0 419c0 15 13 28 28 28z m-126-50l57 0c9 0 16-7 16-16 0-9-7-16-16-16l-57 0c-9 0-16 7-16 16 0 9 7 16 16 16z m1-52l53 0c9 0 16-7 16-16 0-10-7-17-16-17l-53 0c-9 0-16 7-16 17 0 9 7 16 16 16z m466-85l-23-51c0 0-2-8 14-10l50 30c0 0-27 12-41 31z" horiz-adv-x="1000" />
<glyph glyph-name="draw2" unicode="&#xe81e;" d="m49 656c-16 0-28-12-28-28l0-557c0-15 12-28 28-28l902 0c15 0 28 13 28 28l0 557c0 16-13 28-28 28l-902 0z m880-10c2 0 4-1 6-1 11-3 10-13 10-13-12-16-27-38-27-38-6 26-33 30-33 30 18 5 44 22 44 22z m-54-30c31-8 33-30 33-30 0 0-9-8-24-20 1-3 2-7 2-11l0-410c0-20-17-36-37-36l-699 0c-20 0-36 16-36 36l0 410c0 20 16 37 36 37l697 0c17 15 28 24 28 24z m-725-46c-8 0-15-7-15-15l0-223c16 21 50 49 76 59 113 42 153-10 146-58-6-48-28-79 21-71 50 8 43-22 48-37 7-18 39 6 39 6-3 2 0 5 0 5l13 18c0 0 1-9 12-11l-19-12c0 0-4-2-6 0 0 0-11-30-44-26-22 2 9 64-70 20-79-43-24 58-37 119-13 61-64 53-110 30-28-13-52-36-68-53l0-176c0-8 6-15 14-15l699 0c8 0 15 7 15 15l0 404c-58-49-154-128-160-134-34-32-128-132-128-132-32 16-47 45-47 45 0 0 52 40 140 112 7 5 94 80 153 130l-672 0z m366-260c12-20 44-38 44-38l-57-23c-16 4-17 14-17 14l30 47z" horiz-adv-x="1000" />
<glyph glyph-name="drill" unicode="&#xe81f;" d="m502 818c-116 0-211-24-211-54 0 0 0 0 0-1l0 0 0-99c35 0 83 1 136 9 82 11 190 40 274 110-30 21-108 35-199 35z m212-106c-29-20-62-38-97-52-54-23-115-39-182-49-50-7-96-9-131-9-4 0-9 0-13 0l0-108c35-1 83 0 136 8 86 12 202 43 287 121l0 89z m-607-6c-6 0-11-5-11-11 0-6 5-11 11-11l113 0 0-750c0-1 0-1 0-2 2-9 11-16 29-23 15-5 37-11 62-16 33-6 104-17 197-17 94 0 164 11 198 17 25 5 46 11 61 16 19 7 28 14 29 23 1 1 1 1 1 2l0 750 101 0c6 0 10 5 10 11 0 6-4 11-10 11l-112 0c-5 0-10-5-10-11l0-758c-5-4-27-14-83-24-55-10-121-16-185-16-64 0-130 6-185 16-55 10-77 20-82 24l0 758c0 6-5 11-11 11l-123 0z m607-164c-29-21-62-38-97-53-54-23-115-39-182-48-50-8-96-10-131-10-4 0-9 0-13 1l0-126c35-1 83 1 136 8 86 12 202 43 287 122l0 106z m0-188c-29-20-62-38-97-53-54-23-115-39-182-48-50-7-96-9-131-9-4 0-9 0-13 0l0-116 214-188 209 188 0 226z" horiz-adv-x="1000" />
<glyph glyph-name="drill2" unicode="&#xe820;" d="m67 800c-7 0-13-6-13-13 0-8 6-14 13-14l156 0 0-814c0-7 6-13 14-13 7 0 13 6 13 13l0 828c0 7-6 13-13 13l-170 0z m699 0c-8 0-14-6-14-13l0-828c0-7 6-13 14-13 7 0 13 6 13 13l0 814 156 0c8 0 14 6 14 14 0 7-6 13-14 13l-169 0z m-479-16l0-119 0-7 7-1c11-2 35-10 35-22 0-28-37-44-37-44l-5-2 0-177 7-1c0 0 34-5 34-25 0-20-27-40-37-46l-4-2 0-163c0 0 7-22 21-21 14 1 27 3 35-3 1-1 1-2 1-4-1-13-33-29-40-37-15-18-1-31-1-31l202-179 209 188 8 227c0 0 1 13-12 20-12 8-17 13-18 24-4 38 28 83 29 84 1 1 1 3 1 4l0 112c0 3-1 5-2 6-2 2-4 3-7 3 0 0-14-1-20 17-8 26 18 88 28 110 1 1 1 2 1 4l0 85-16 0 0-1-11 0c-11-11-47-40-59-51-200-175-335-173-315-142 12 10 24 25 24 45 0 18-16 28-31 33 35 7 80 17 127 35 54 21 103 48 144 81l-282 0-8 0-8 0z m395-144c-6-21-10-44-4-60 5-18 18-25 28-28l0-1c13-20-58-81-84-102-207-168-347-145-309-113 14 10 31 28 31 50 0 20-15 30-29 36 35 7 79 20 126 38 105 41 186 100 241 180z m-6-264c-1-6-1-12-1-18 2-19 21-33 29-38 8-12-40-67-65-87-240-187-333-145-303-124 12 10 24 23 25 37 0 7-2 12-7 17-6 5-15 7-24 8 33 7 71 18 111 36 120 55 186 100 235 169z" horiz-adv-x="1000" />
<glyph glyph-name="drill3" unicode="&#xe821;" d="m67 799c-8 0-14-6-14-14 0-8 6-23 14-23l150 0 0-804c0-8 12-14 19-14 8 0 14 6 14 14l0 827c0 8-6 14-14 14l-169 0z m698 0c-7 0-13-6-13-14l0-827c0-8 6-14 13-14 8 0 20 6 20 14l0 804 150 0c7 0 13 15 13 23 0 8-6 14-13 14l-170 0z m-60-17l0-1-10 0c-11-11-47-40-60-50-200-175-265-159-244-127 12 10 24 25 24 45 0 18-17 28-31 33 35 6 9 2 56 20 55 21 103 48 145 80l-282 0-9 0-8 0 0-118 0-7 7-2c12-2 35-9 35-21 0-28-36-44-37-44l-5-2 0-178 7-1c1 0 34-5 34-25 0-20-26-39-37-45l-4-3 0-162c0 0 8-23 22-22 13 1 27 3 34-3 1-1 2-2 2-4-1-13-33-29-40-37-15-18-6-37 10-58 75-101 190-151 190-151 0 0 144 59 209 220 22 52 8 195 8 195 0 0 1 12-11 20-13 7-18 13-19 23-3 38 29 84 29 84 1 1 2 3 2 5l0 112c0 2-1 4-3 6-2 1-4 2-6 2 0 0-15-1-20 17-9 27 17 89 28 110 0 1 1 3 1 4l0 85-17 0z m-45-164c-7-22-10-45-5-60 6-18 18-26 28-28l0-1c13-21-35-60-61-82-207-167-269-122-231-90 13 11 31 29 31 50 0 20-16 31-29 36 35 7 0-2 47 16 105 40 164 78 220 159z m-7-266c-1-6-1-12-1-18 2-19 21-33 29-38 8-12-17-44-43-64-240-187-263-123-233-101 12 10 24 22 25 36 0 7-2 13-7 17-6 5-15 8-24 9 33 6 31 9 49 17 97 46 169 88 205 142z" horiz-adv-x="1000" />
<glyph glyph-name="earthquake" unicode="&#xe822;" d="m501 828c-128 0-248-50-339-141 0-1-1-1-2-2-7 14-13 27-15 34l39 30-149 78-2-203 30 25c4-11 12-34 26-57-44-73-67-156-67-243 0-87 23-169 65-242-13-22-20-44-24-55l-30 26 2-204 149 79-39 30c2 6 7 18 13 31 2-1 3-3 4-4 91-91 211-140 339-140 128 0 248 49 339 140 1 1 3 3 4 4 7-13 11-25 14-31l-39-30 148-79 2 204-30-26c-3 11-11 33-24 55 43 73 65 155 65 242 0 87-23 170-66 243 14 23 22 46 25 57l30-25-2 203-148-78 39-30c-3-7-8-20-16-34 0 0-1 1-2 2-91 91-211 141-339 141z m0-24c130 0 246-54 329-141-20-34-51-70-88-73-62 62-147 100-241 100-94 0-179-38-240-100-37 3-68 39-89 73 83 87 200 141 329 141z m0-138c78 0 149-28 204-74-49-2-73-43-90-82-32 23-71 36-114 36-42 0-82-13-114-36-17 39-41 80-89 82 55 46 126 74 203 74z m-397-95c21-26 51-48 93-44 5 0 10 0 14 1-32-52-51-114-51-179 0-64 18-124 48-175-3 0-7 1-11 1-43 3-74-19-95-46-36 65-56 140-56 220 0 80 21 156 58 222z m795 0c37-66 58-142 58-222 0-80-21-155-57-220-21 27-51 49-94 46-4 0-8-1-12-1 31 51 48 111 48 175 0 65-18 127-51 179 5-1 10-1 15-1 42-4 72 17 93 44z m-660-43c61-4 68-33 76-64 2-7 7-13 13-20-15-28-24-61-24-95 0-34 8-65 23-93-6-6-10-12-12-19-8-31-16-60-79-63-33 50-52 110-52 175 0 66 20 128 55 179z m524 0c35-51 56-113 56-179 0-65-20-125-53-175-63 3-70 32-79 63-1 7-5 13-11 19 14 28 23 59 23 93 0 34-9 67-25 95 7 6 12 13 14 20 8 31 15 60 75 64z m-262-5c39 0 75-13 104-35-29-44-75-33-79-32 2-1 25-8 43-31 16-20 56-12 86 5 13-24 20-52 20-81 0-28-6-55-18-78-30 18-72 26-88 5-18-22-41-29-43-30 4 1 52 12 81-36-30-22-66-35-106-35-39 0-76 13-105 35 28 48 77 37 81 36-3 1-26 8-44 30-16 21-58 13-87-5-12 23-19 50-19 78 0 29 7 57 20 81 30-17 71-25 86-5 18 23 41 30 44 31-4-1-51-12-79 32 29 22 64 35 103 35z m0-101c-40 0-73-33-73-73 0-41 33-74 73-74 41 0 74 33 74 74 0 40-33 73-74 73z m116-233c17-40 43-80 93-80-56-48-129-78-209-78-80 0-153 30-208 78 50 0 75 40 93 80 32-24 72-38 115-38 43 0 83 14 116 38z m129-78c36-5 66-41 86-75-83-88-201-143-331-143-130 0-248 55-331 143 21 34 51 70 87 75 62-64 148-103 244-103 96 0 183 39 245 103z" horiz-adv-x="1000" />
<glyph glyph-name="flag" unicode="&#xe823;" d="m486 846c-1 0-3-1-5-4l0-24c0 0 9 4 15-3l-2 27c0 0-4 4-8 4z m0-38c-3 0-5-1-5-1l0-953c17-2 17 6 17 6l0 606c0 0 27 87 174-2 158-96 216 13 216 13-43-12-81-3-122 129-22 69-90 80-149 92-60 13-116 99-121 106-2 3-6 4-10 4z m13-611c0 0 0 0 0 0 0 0 0 0 0 0z m209 0c0 0 0 0 0 0 0 0 0 0 0 0z m-209-49c0 0 0 0 0 0 0 0 0 0 0 0z m209 0c0 0 0 0 0 0 0 0 0 0 0 0z" horiz-adv-x="1000" />
<glyph glyph-name="flag2" unicode="&#xe824;" d="m613 741c-57-13-103-9-163 29-44 27-99 17-129 8l0 5c8 5 12 13 12 23 0 15-12 27-28 27-15 0-28-12-28-27 0-10 6-18 15-23l0-919 29 0 0 625c27 13 75 22 117-7 30-21 64-34 133-11 89 29 145-28 145-28l0 250c-35 54-103 48-103 48z" horiz-adv-x="1000" />
</font>
</defs>
</svg>
