<svg xmlns="http://www.w3.org/2000/svg"
                    xmlns:xlink="http://www.w3.org/1999/xlink" style="width: 47px; height: 35px;">
	<g transform="scale(0.5)">
		<path style="fill: #1565C0" d="m 15.020138,2.8953042 c 1.306877,1.820197 17.056898,25.4647658 16.996894,25.5164278 -0.160899,0.138535 -4.316835,0.501405 -6.477439,0.565558 -1.282471,0.03808 -2.392147,0.166941 -2.465946,0.286342 -0.07379,0.119409 0.246013,1.416247 0.71069,2.881857 2.36008,7.443806 7.021347,13.480284 13.673308,17.707332 3.477621,2.209879 5.683475,3.074882 11.5329,4.522485 1.50692,0.372923 8.592658,0.425436 10.744847,0.07962 3.261213,-0.524018 7.389736,-1.984548 10.651945,-3.768309 4.432702,-2.42377 7.962199,-5.74104 11.595643,-10.898401 0.324439,-0.460509 1.272606,-0.01839 5.835565,2.720993 2.996501,1.798964 5.448182,3.397952 5.448182,3.553315 0,0.667373 -4.46876,6.244246 -7.049121,8.797087 C 80.126856,60.885396 71.414515,65.403008 62.929639,66.935123 42.848331,70.561203 23.259274,60.776148 14.092737,42.540278 12.936634,40.240331 10.593399,33.505231 10.088255,31.030305 l -0.2128405,-1.04281 -3.969946,0.242649 c -2.183466,0.133462 -4.3450853,0.299905 -4.8035943,0.369881 -0.45850903,0.06996 -0.83365503,0.02667 -0.83365503,-0.0963 0,-0.122942 2.52153933,-5.322225 5.60340233,-11.553966 3.081879,-6.231733 6.1794035,-12.5392278 6.8833965,-14.0166388 0.703994,-1.477418 1.396899,-2.686211 1.539786,-2.686211 0.142888,0 0.469291,0.291775 0.725334,0.648392 z" />
	</g>
</svg>