<svg xmlns="http://www.w3.org/2000/svg"
                    xmlns:xlink="http://www.w3.org/1999/xlink" style="width: 47px; height: 35px;">
	<g transform="scale(0.5)">
		<path style="fill: #1565C0" d="M 78.514808,67.034778 C 77.207931,65.214581 61.45791,41.570012 61.517914,41.51835 c 0.160899,-0.138535 4.316835,-0.501405 6.477439,-0.565558 1.282471,-0.03808 2.392147,-0.166941 2.465946,-0.286342 0.07379,-0.119409 -0.246013,-1.416247 -0.71069,-2.881857 -2.36008,-7.443806 -7.021347,-13.480284 -13.673308,-17.707332 -3.477621,-2.209879 -5.683475,-3.074882 -11.5329,-4.522485 -1.50692,-0.372923 -8.592658,-0.425436 -10.744847,-0.07962 -3.261213,0.524018 -7.389736,1.984548 -10.651945,3.768309 -4.432702,2.42377 -7.962199,5.74104 -11.595643,10.898401 -0.324439,0.460509 -1.272606,0.01839 -5.8355644,-2.720993 -2.996501,-1.798964 -5.44818239,-3.397952 -5.44818239,-3.553315 0,-0.667373 4.46875989,-6.244246 7.04912059,-8.797087 C 13.40809,9.044686 22.120431,4.527074 30.605307,2.994959 c 20.081308,-3.62607996 39.670365,6.158975 48.836902,24.394845 1.156103,2.299947 3.499338,9.035047 4.004482,11.509973 l 0.212841,1.04281 3.969946,-0.242649 c 2.183466,-0.133462 4.345085,-0.299905 4.803594,-0.369881 0.458509,-0.06996 0.833655,-0.02667 0.833655,0.0963 0,0.122942 -2.521539,5.322225 -5.603402,11.553966 -3.081879,6.231733 -6.179404,12.539228 -6.883397,14.016639 -0.703994,1.477418 -1.396899,2.686211 -1.539786,2.686211 -0.142888,0 -0.469291,-0.291775 -0.725334,-0.648392 z" />
	</g>
</svg>