<?xml version="1.0" encoding="utf-8"?>
<!-- Generator: Adobe Illustrator 21.0.2, SVG Export Plug-In . SVG Version: 6.00 Build 0)  -->
<svg version="1.1" id="svg2" xmlns="http://www.w3.org/2000/svg" xmlns:xlink="http://www.w3.org/1999/xlink" x="0px" y="0px"
	 viewBox="0 0 200 200" style="enable-background:new 0 0 200 200;" xml:space="preserve">
<style type="text/css">
	.st0{fill:#FFFFFF;}
</style>
<path class="st0" d="M86.2,69.5c2.5-1,4.9-2.2,6.7-2.9c7.2-2.9,14.6-6.8,22.3-8.2c0,0,0-0.1,0-0.1c-0.2-0.7-0.2-1.3-0.2-1.9
	c-1.6,0.1-3.2,0.2-4.6,0.2c-7.8,0.5-17.3,1.5-24,6C86.5,65,86.5,67.3,86.2,69.5z"/>
<path class="st0" d="M122.4,68.4c-0.3-0.2-0.5-0.4-0.8-0.6c-3,0.2-5.9,0.7-8.8,1.6c-8.7,2.9-17.1,7.5-26,10.2c0,1.9-0.3,3.8-0.9,5.7
	l0,0c2.2-0.5,4.5-1.1,6.7-1.7c6.7-5,15.1-7.5,23.9-6.6C118.5,74.2,120.5,71.3,122.4,68.4z"/>
<path class="st0" d="M71.5,79.6c-0.6-0.3-1.2-0.7-1.8-1.1c-1.8,1.2-3.9,1.9-6.4,1.9c-0.7,0-1.4-0.1-2.1-0.3
	c2.4,4.4,6.5,6.3,11.1,6.8C72,84.5,71.7,82,71.5,79.6z"/>
<path class="st0" d="M100,2.9C46.4,2.9,2.9,46.4,2.9,100v0c0,53.6,43.5,97.1,97.1,97.1c53.6,0,97.1-43.5,97.1-97.1v0
	C197.1,46.4,153.6,2.9,100,2.9z M165.3,76.5c-2.8,6.3-8.3,10-15,11.3c-2.6,0.5-4.8-0.6-5.8-2.8c-0.2,0.2-0.4,0.3-0.6,0.5
	c-0.5,1.1-1,2.2-1.7,3.3c-0.4,0.5-0.7,1-1.1,1.5c0.3,0.5,0.7,1.1,0.9,1.6c4.3,8.3,0.6,17.5-6.2,23.3c-3.1,2.7-7,4.6-11,6
	c-2.1,2.9-4.6,5.5-7.3,7.6c-1.1,7.8,0.6,15.5,0,23.5c-0.8,10.4-7.1,16.7-17.8,14.4c-1.8-0.4-3.3-2.2-3.6-4c-3.6,1.1-7.6,0.8-10.6-2
	c-5.3-5.1-5-14.2-4.5-20.8c0.2-3.1,3-5.8,6.3-4.8c0.3,0.1,0.5,0.2,0.8,0.2c-0.1-0.4-0.1-0.9,0-1.4c-1-0.7-1.7-1.9-2-3.2
	c-3.3,2.8-9.4-0.4-8-5.2c0.2-0.6,0.3-1.1,0.5-1.7c-1.1-0.6-2.1-1.2-3-2c-4.7-3.8-8.3-12.1-4.9-17.8c2.2-3.9,5.9-4.8,10-4.1
	c0.3-0.9,0.7-1.7,1-2.5c0.2-0.4,0.4-0.8,0.6-1.3c-9.8,1.6-19.7,1.1-26.8-7c-7.4-8.4-7.7-21.1-3.6-31.1c-1.8-2.5-0.3-6.6,2.8-7.9
	c1-0.4,2.1-0.9,3.1-1.3c2.9-3,6.4-5.1,10.3-5.5c1-1.8,2.2-3.4,3.5-4.9c-1.2-2.3-0.5-5.5,1.9-6.7c9.5-5,22.3-6,32-1
	c1,0.5,1.6,1.2,2,1.9c1.2-1.2,3-1.9,4.8-1.4c13.5,3.8,26.8,11.4,32.1,25.1c0.7,1.9,1.3,3.8,1.6,5.8c6,2,11.9,4.7,17.5,7.6
	C166.1,71.1,166.4,74.1,165.3,76.5z"/>
<g id="layer1">
	<path d="M100,0C44.8,0,0,44.8,0,100s44.8,100,100,100s100-44.8,100-100S155.2,0,100,0z M100,187.2c-48.1,0-87.2-39.1-87.2-87.2
		S51.9,12.8,100,12.8s87.2,39.1,87.2,87.2S148.1,187.2,100,187.2z"/>
</g>
</svg>
