<?xml version="1.0" encoding="utf-8"?>
<!-- Svg Vector Icons : http://www.onlinewebfonts.com/icon -->
<!DOCTYPE svg PUBLIC "-//W3C//DTD SVG 1.1//EN" "http://www.w3.org/Graphics/SVG/1.1/DTD/svg11.dtd">
<svg version="1.1" xmlns="http://www.w3.org/2000/svg" xmlns:xlink="http://www.w3.org/1999/xlink" x="0px" y="0px" viewBox="0 0 1000 1000" enable-background="new 0 0 1000 1000" xml:space="preserve">
<metadata> Svg Vector Icons : http://www.onlinewebfonts.com/icon </metadata>
<g><g transform="translate(0.000000,512.000000) scale(0.100000,-0.100000)"><path d="M4553.5,5008.1c-941.6-99.7-1781.6-425.8-2516.1-976.2c-243.6-184.1-657.8-586.8-859.2-836.2C637.4,2526.4,280.7,1711.4,144.5,836.9C88.9,480.2,85.1-196.8,134.9-543.9c124.7-847.7,446.9-1626.3,957-2307.1c170.7-228.2,579.2-650.1,811.2-838.1c552.3-448.8,1233.1-788.2,1927.4-958.9c420-101.6,698.1-134.2,1179.4-132.3c784.4,0,1426.8,145.8,2111.5,475.6c515.9,249.3,882.2,506.3,1290.7,903.3c433.4,423.8,721.1,813.1,978.1,1334.8c239.7,479.4,398.9,995.3,475.6,1522.7c46,327.9,46,989.6-1.9,1323.3c-126.6,893.7-496.7,1747.1-1056.7,2435.6c-187.9,232-609.8,640.5-838.1,811.2c-671.2,502.5-1430.7,822.7-2249.6,945.5C5429.9,5015.7,4812.4,5034.9,4553.5,5008.1z M6227.7,2265.6v-920.5h920.5h920.5V117.7v-1227.4h-920.5h-920.5v-920.5v-920.5H5009.9H3792.1v920.5v920.5h-920.5h-920.5V117.7v1227.4h920.5h920.5v920.5v920.5h1217.8h1217.8V2265.6z"/></g></g>
</svg>